<?xml version="1.0" encoding="UTF-8" standalone="no"?>
<!DOCTYPE svg PUBLIC "-//W3C//DTD SVG 1.1//EN"
 "http://www.w3.org/Graphics/SVG/1.1/DTD/svg11.dtd">
<!-- Generated by graphviz version 8.0.1 (20230327.1645)
 -->
<!-- Pages: 1 -->
<svg width="2606pt" height="881pt"
 viewBox="0.00 0.00 2606.00 881.00" xmlns="http://www.w3.org/2000/svg" xmlns:xlink="http://www.w3.org/1999/xlink">
<g id="graph0" class="graph" transform="scale(1 1) rotate(0) translate(4 877)">
<polygon fill="white" stroke="none" points="-4,4 -4,-877 2602,-877 2602,4 -4,4"/>
<g id="clust1" class="cluster">
<title>cluster_router</title>
<polygon fill="none" stroke="black" points="270,-578 270,-865 936,-865 936,-578 270,-578"/>
<text text-anchor="middle" x="296.5" y="-849.8" font-family="Times,serif" font-size="14.00">Router</text>
</g>
<g id="clust2" class="cluster">
<title>cluster_switch</title>
<polygon fill="none" stroke="black" points="1142,-423 1142,-687 1678,-687 1678,-423 1142,-423"/>
<text text-anchor="middle" x="1169" y="-671.8" font-family="Times,serif" font-size="14.00">Switch</text>
</g>
<g id="clust3" class="cluster">
<title>cluster_vm</title>
<polygon fill="none" stroke="black" points="8,-153 8,-354 1316,-354 1316,-153 8,-153"/>
<text text-anchor="middle" x="50" y="-338.8" font-family="Times,serif" font-size="14.00">VMs cluster</text>
</g>
<g id="clust4" class="cluster">
<title>cluster_jetson</title>
<polygon fill="none" stroke="black" points="1324,-187.5 1324,-319.5 2590,-319.5 2590,-187.5 1324,-187.5"/>
<text text-anchor="middle" x="1365.5" y="-304.3" font-family="Times,serif" font-size="14.00">Jetson Nano</text>
</g>
<g id="clust5" class="cluster">
<title>cluster_k8s</title>
<polygon fill="none" stroke="black" points="1320,-8 1320,-84 1395,-84 1395,-8 1320,-8"/>
<text text-anchor="middle" x="1357.5" y="-68.8" font-family="Times,serif" font-size="14.00">k8s cluster</text>
</g>
<!-- TPlink -->
<g id="node1" class="node">
<title>TPlink</title>
<polygon fill="none" stroke="black" points="535.5,-764.5 535.5,-833.5 672.5,-833.5 672.5,-764.5 535.5,-764.5"/>
<text text-anchor="middle" x="604" y="-818.3" font-family="Times,serif" font-size="14.00">TP&#45;LINK ER7206</text>
<polyline fill="none" stroke="black" points="535.5,-810.5 672.5,-810.5"/>
<text text-anchor="middle" x="604" y="-795.3" font-family="Times,serif" font-size="14.00">Gateway: 192.168.0.1</text>
<polyline fill="none" stroke="black" points="535.5,-787.5 672.5,-787.5"/>
<text text-anchor="middle" x="604" y="-772.3" font-family="Times,serif" font-size="14.00">DHCP: on</text>
</g>
<!-- P1 -->
<g id="node2" class="node">
<title>P1</title>
<polygon fill="none" stroke="black" points="278,-598 278,-644 364,-644 364,-598 278,-598"/>
<text text-anchor="middle" x="321" y="-628.8" font-family="Times,serif" font-size="14.00">PORT_1</text>
<polyline fill="none" stroke="black" points="278,-621 364,-621"/>
<text text-anchor="middle" x="321" y="-605.8" font-family="Times,serif" font-size="14.00">mode: WAN</text>
</g>
<!-- TPlink&#45;&gt;P1 -->
<g id="edge1" class="edge">
<title>TPlink&#45;&gt;P1</title>
<path fill="none" stroke="black" d="M535.76,-774.57C487.19,-755.76 422.1,-726.06 373,-687 360.83,-677.32 349.71,-664.3 340.9,-652.45"/>
<polygon fill="black" stroke="black" points="343.3,-650.79 334.64,-644.7 337.61,-654.87 343.3,-650.79"/>
</g>
<!-- P3 -->
<g id="node3" class="node">
<title>P3</title>
<polygon fill="none" stroke="black" points="382,-586.5 382,-655.5 518,-655.5 518,-586.5 382,-586.5"/>
<text text-anchor="middle" x="450" y="-640.3" font-family="Times,serif" font-size="14.00">PORT_3</text>
<polyline fill="none" stroke="black" points="382,-632.5 518,-632.5"/>
<text text-anchor="middle" x="450" y="-617.3" font-family="Times,serif" font-size="14.00">mode: LAN</text>
<polyline fill="none" stroke="black" points="382,-609.5 518,-609.5"/>
<text text-anchor="middle" x="450" y="-594.3" font-family="Times,serif" font-size="14.00">Static IP: 192.168.0.2</text>
</g>
<!-- TPlink&#45;&gt;P3 -->
<g id="edge3" class="edge">
<title>TPlink&#45;&gt;P3</title>
<path fill="none" stroke="black" d="M575.03,-764.9C549.84,-736.1 513.22,-694.25 486.12,-663.28"/>
<polygon fill="black" stroke="black" points="488.32,-661.48 479.1,-656.25 483.05,-666.09 488.32,-661.48"/>
</g>
<!-- P4 -->
<g id="node4" class="node">
<title>P4</title>
<polygon fill="none" stroke="black" points="536,-586.5 536,-655.5 672,-655.5 672,-586.5 536,-586.5"/>
<text text-anchor="middle" x="604" y="-640.3" font-family="Times,serif" font-size="14.00">PORT_4</text>
<polyline fill="none" stroke="black" points="536,-632.5 672,-632.5"/>
<text text-anchor="middle" x="604" y="-617.3" font-family="Times,serif" font-size="14.00">mode: LAN</text>
<polyline fill="none" stroke="black" points="536,-609.5 672,-609.5"/>
<text text-anchor="middle" x="604" y="-594.3" font-family="Times,serif" font-size="14.00">Static IP: 192.168.0.4</text>
</g>
<!-- TPlink&#45;&gt;P4 -->
<g id="edge4" class="edge">
<title>TPlink&#45;&gt;P4</title>
<path fill="none" stroke="black" d="M604,-764.9C604,-736.96 604,-696.74 604,-666.08"/>
<polygon fill="black" stroke="black" points="607.5,-666.25 604,-656.25 600.5,-666.25 607.5,-666.25"/>
</g>
<!-- P5 -->
<g id="node5" class="node">
<title>P5</title>
<polygon fill="none" stroke="black" points="690,-586.5 690,-655.5 826,-655.5 826,-586.5 690,-586.5"/>
<text text-anchor="middle" x="758" y="-640.3" font-family="Times,serif" font-size="14.00">PORT_5</text>
<polyline fill="none" stroke="black" points="690,-632.5 826,-632.5"/>
<text text-anchor="middle" x="758" y="-617.3" font-family="Times,serif" font-size="14.00">mode: LAN</text>
<polyline fill="none" stroke="black" points="690,-609.5 826,-609.5"/>
<text text-anchor="middle" x="758" y="-594.3" font-family="Times,serif" font-size="14.00">Static IP: 192.168.0.3</text>
</g>
<!-- TPlink&#45;&gt;P5 -->
<g id="edge5" class="edge">
<title>TPlink&#45;&gt;P5</title>
<path fill="none" stroke="black" d="M632.97,-764.9C658.16,-736.1 694.78,-694.25 721.88,-663.28"/>
<polygon fill="black" stroke="black" points="724.95,-666.09 728.9,-656.25 719.68,-661.48 724.95,-666.09"/>
</g>
<!-- P2 -->
<g id="node6" class="node">
<title>P2</title>
<polygon fill="none" stroke="black" points="844.5,-586.5 844.5,-655.5 927.5,-655.5 927.5,-586.5 844.5,-586.5"/>
<text text-anchor="middle" x="886" y="-640.3" font-family="Times,serif" font-size="14.00">PORT_2</text>
<polyline fill="none" stroke="black" points="844.5,-632.5 927.5,-632.5"/>
<text text-anchor="middle" x="886" y="-617.3" font-family="Times,serif" font-size="14.00">mode: LAN</text>
<polyline fill="none" stroke="black" points="844.5,-609.5 927.5,-609.5"/>
<text text-anchor="middle" x="886" y="-594.3" font-family="Times,serif" font-size="14.00">DHCP</text>
</g>
<!-- TPlink&#45;&gt;P2 -->
<g id="edge2" class="edge">
<title>TPlink&#45;&gt;P2</title>
<path fill="none" stroke="black" d="M672.35,-774.71C720.98,-755.97 786.09,-726.29 835,-687 843.22,-680.4 850.92,-672.23 857.72,-663.94"/>
<polygon fill="black" stroke="black" points="861.07,-666.35 864.47,-656.32 855.55,-662.04 861.07,-666.35"/>
</g>
<!-- NUC -->
<g id="node14" class="node">
<title>NUC</title>
<polygon fill="none" stroke="black" points="16,-161.5 16,-322.5 572,-322.5 572,-161.5 16,-161.5"/>
<text text-anchor="middle" x="294" y="-307.3" font-family="Times,serif" font-size="14.00">NUC11&#45;SERVER</text>
<polyline fill="none" stroke="black" points="16,-299.5 572,-299.5"/>
<text text-anchor="middle" x="102" y="-284.3" font-family="Times,serif" font-size="14.00">CPU: i9 11900kb (x16 core)</text>
<polyline fill="none" stroke="black" points="188,-276.5 188,-299.5"/>
<text text-anchor="middle" x="234" y="-284.3" font-family="Times,serif" font-size="14.00">RAM: 64 GB</text>
<polyline fill="none" stroke="black" points="280,-276.5 280,-299.5"/>
<text text-anchor="middle" x="330.5" y="-284.3" font-family="Times,serif" font-size="14.00">IP: 192.168.0.4</text>
<polyline fill="none" stroke="black" points="381,-276.5 381,-299.5"/>
<text text-anchor="middle" x="476.5" y="-284.3" font-family="Times,serif" font-size="14.00">GPU: NVIDA RTX 3060 12GB</text>
<polyline fill="none" stroke="black" points="16,-276.5 572,-276.5"/>
<text text-anchor="middle" x="116" y="-215.3" font-family="Times,serif" font-size="14.00">DISKs</text>
<polyline fill="none" stroke="black" points="216,-161.5 216,-276.5"/>
<text text-anchor="middle" x="279.5" y="-249.8" font-family="Times,serif" font-size="14.00">LVM1</text>
<polyline fill="none" stroke="black" points="343,-230.5 343,-276.5"/>
<text text-anchor="middle" x="457.5" y="-261.3" font-family="Times,serif" font-size="14.00">1TB SSD</text>
<polyline fill="none" stroke="black" points="343,-253.5 572,-253.5"/>
<text text-anchor="middle" x="457.5" y="-238.3" font-family="Times,serif" font-size="14.00">RHEL_DEFAULT_LVM</text>
<polyline fill="none" stroke="black" points="216,-230.5 572,-230.5"/>
<text text-anchor="middle" x="289" y="-192.3" font-family="Times,serif" font-size="14.00">LVM2</text>
<polyline fill="none" stroke="black" points="362,-161.5 362,-230.5"/>
<text text-anchor="middle" x="467" y="-215.3" font-family="Times,serif" font-size="14.00">5TB HDD x3</text>
<polyline fill="none" stroke="black" points="362,-207.5 572,-207.5"/>
<text text-anchor="middle" x="413" y="-192.3" font-family="Times,serif" font-size="14.00">Vms</text>
<polyline fill="none" stroke="black" points="362,-184.5 464,-184.5"/>
<text text-anchor="middle" x="413" y="-169.3" font-family="Times,serif" font-size="14.00">500GB</text>
<polyline fill="none" stroke="black" points="464,-161.5 464,-207.5"/>
<text text-anchor="middle" x="518" y="-192.3" font-family="Times,serif" font-size="14.00">Share</text>
<polyline fill="none" stroke="black" points="464,-184.5 572,-184.5"/>
<text text-anchor="middle" x="518" y="-169.3" font-family="Times,serif" font-size="14.00">14.5 TB</text>
</g>
<!-- P4&#45;&gt;NUC -->
<g id="edge11" class="edge">
<title>P4&#45;&gt;NUC</title>
<path fill="none" stroke="black" d="M576.49,-586.54C529.71,-529.66 433.24,-412.34 366.13,-330.72"/>
<polygon fill="black" stroke="black" points="368.38,-328.94 359.32,-323.44 362.97,-333.39 368.38,-328.94"/>
</g>
<!-- HP -->
<g id="node13" class="node">
<title>HP</title>
<polygon fill="none" stroke="black" points="590,-161.5 590,-322.5 926,-322.5 926,-161.5 590,-161.5"/>
<text text-anchor="middle" x="758" y="-307.3" font-family="Times,serif" font-size="14.00">HP&#45;SERVER</text>
<polyline fill="none" stroke="black" points="590,-299.5 926,-299.5"/>
<text text-anchor="middle" x="665" y="-284.3" font-family="Times,serif" font-size="14.00">CPU: i7 7700 (x8 cores)</text>
<polyline fill="none" stroke="black" points="740,-276.5 740,-299.5"/>
<text text-anchor="middle" x="784" y="-284.3" font-family="Times,serif" font-size="14.00">RAM:32 GB</text>
<polyline fill="none" stroke="black" points="828,-276.5 828,-299.5"/>
<text text-anchor="middle" x="877" y="-284.3" font-family="Times,serif" font-size="14.00">IP:192.168.0.3</text>
<polyline fill="none" stroke="black" points="590,-276.5 926,-276.5"/>
<text text-anchor="middle" x="635" y="-215.3" font-family="Times,serif" font-size="14.00">DISKs</text>
<polyline fill="none" stroke="black" points="680,-161.5 680,-276.5"/>
<text text-anchor="middle" x="716" y="-249.8" font-family="Times,serif" font-size="14.00">LVM1</text>
<polyline fill="none" stroke="black" points="752,-230.5 752,-276.5"/>
<text text-anchor="middle" x="839" y="-261.3" font-family="Times,serif" font-size="14.00">1TB SSD</text>
<polyline fill="none" stroke="black" points="752,-253.5 926,-253.5"/>
<text text-anchor="middle" x="839" y="-238.3" font-family="Times,serif" font-size="14.00">RHEL_DEFAULT_LVM</text>
<polyline fill="none" stroke="black" points="680,-230.5 926,-230.5"/>
<text text-anchor="middle" x="728" y="-192.3" font-family="Times,serif" font-size="14.00">LVM2</text>
<polyline fill="none" stroke="black" points="776,-161.5 776,-230.5"/>
<text text-anchor="middle" x="851" y="-215.3" font-family="Times,serif" font-size="14.00">2TB SSD</text>
<polyline fill="none" stroke="black" points="776,-207.5 926,-207.5"/>
<text text-anchor="middle" x="814.5" y="-192.3" font-family="Times,serif" font-size="14.00">VMs</text>
<polyline fill="none" stroke="black" points="776,-184.5 853,-184.5"/>
<text text-anchor="middle" x="814.5" y="-169.3" font-family="Times,serif" font-size="14.00">500GB</text>
<polyline fill="none" stroke="black" points="853,-161.5 853,-207.5"/>
<text text-anchor="middle" x="889.5" y="-192.3" font-family="Times,serif" font-size="14.00">Share</text>
<polyline fill="none" stroke="black" points="853,-184.5 926,-184.5"/>
<text text-anchor="middle" x="889.5" y="-169.3" font-family="Times,serif" font-size="14.00">1.5TB</text>
</g>
<!-- P5&#45;&gt;HP -->
<g id="edge10" class="edge">
<title>P5&#45;&gt;HP</title>
<path fill="none" stroke="black" d="M758,-586.54C758,-530.23 758,-414.7 758,-333.2"/>
<polygon fill="black" stroke="black" points="761.5,-333.44 758,-323.44 754.5,-333.44 761.5,-333.44"/>
</g>
<!-- SP2 -->
<g id="node11" class="node">
<title>SP2</title>
<polygon fill="none" stroke="black" points="1150.5,-431.5 1150.5,-477.5 1211.5,-477.5 1211.5,-431.5 1150.5,-431.5"/>
<text text-anchor="middle" x="1181" y="-462.3" font-family="Times,serif" font-size="14.00">PORT 2</text>
<polyline fill="none" stroke="black" points="1150.5,-454.5 1211.5,-454.5"/>
<text text-anchor="middle" x="1181" y="-439.3" font-family="Times,serif" font-size="14.00">DHCP</text>
</g>
<!-- P2&#45;&gt;SP2 -->
<g id="edge13" class="edge">
<title>P2&#45;&gt;SP2</title>
<path fill="none" stroke="black" d="M927.33,-596.95C984.02,-565.34 1085.24,-508.9 1141.15,-477.72"/>
<polygon fill="black" stroke="black" points="1142.68,-480.32 1149.71,-472.39 1139.27,-474.21 1142.68,-480.32"/>
</g>
<!-- Switch -->
<g id="node7" class="node">
<title>Switch</title>
<polygon fill="none" stroke="black" points="1294,-586.5 1294,-655.5 1454,-655.5 1454,-586.5 1294,-586.5"/>
<text text-anchor="middle" x="1374" y="-640.3" font-family="Times,serif" font-size="14.00">NETGEAR GS305E</text>
<polyline fill="none" stroke="black" points="1294,-632.5 1454,-632.5"/>
<text text-anchor="middle" x="1374" y="-617.3" font-family="Times,serif" font-size="14.00">IP: 192.168.0.239</text>
<polyline fill="none" stroke="black" points="1294,-609.5 1454,-609.5"/>
<text text-anchor="middle" x="1374" y="-594.3" font-family="Times,serif" font-size="14.00">DHCP Client of TP&#45;LINK</text>
</g>
<!-- SP1 -->
<g id="node8" class="node">
<title>SP1</title>
<polygon fill="none" stroke="black" points="1534,-431.5 1534,-477.5 1670,-477.5 1670,-431.5 1534,-431.5"/>
<text text-anchor="middle" x="1602" y="-462.3" font-family="Times,serif" font-size="14.00">PORT 1</text>
<polyline fill="none" stroke="black" points="1534,-454.5 1670,-454.5"/>
<text text-anchor="middle" x="1602" y="-439.3" font-family="Times,serif" font-size="14.00">Static IP: 192.168.0.7</text>
</g>
<!-- Switch&#45;&gt;SP1 -->
<g id="edge6" class="edge">
<title>Switch&#45;&gt;SP1</title>
<path fill="none" stroke="black" d="M1420.41,-586.51C1462.42,-556.21 1523.58,-512.08 1563.08,-483.58"/>
<polygon fill="black" stroke="black" points="1564.59,-486.08 1570.66,-477.39 1560.5,-480.41 1564.59,-486.08"/>
</g>
<!-- SP4 -->
<g id="node9" class="node">
<title>SP4</title>
<polygon fill="none" stroke="black" points="1230,-431.5 1230,-477.5 1366,-477.5 1366,-431.5 1230,-431.5"/>
<text text-anchor="middle" x="1298" y="-462.3" font-family="Times,serif" font-size="14.00">PORT 4</text>
<polyline fill="none" stroke="black" points="1230,-454.5 1366,-454.5"/>
<text text-anchor="middle" x="1298" y="-439.3" font-family="Times,serif" font-size="14.00">Static IP: 192.168.0.5</text>
</g>
<!-- Switch&#45;&gt;SP4 -->
<g id="edge9" class="edge">
<title>Switch&#45;&gt;SP4</title>
<path fill="none" stroke="black" d="M1358.62,-586.71C1345.18,-557.61 1325.8,-515.66 1312.59,-487.08"/>
<polygon fill="black" stroke="black" points="1315.4,-485.82 1308.03,-478.21 1309.05,-488.75 1315.4,-485.82"/>
</g>
<!-- SP3 -->
<g id="node10" class="node">
<title>SP3</title>
<polygon fill="none" stroke="black" points="1384,-431.5 1384,-477.5 1516,-477.5 1516,-431.5 1384,-431.5"/>
<text text-anchor="middle" x="1450" y="-462.3" font-family="Times,serif" font-size="14.00">PORT 3</text>
<polyline fill="none" stroke="black" points="1384,-454.5 1516,-454.5"/>
<text text-anchor="middle" x="1450" y="-439.3" font-family="Times,serif" font-size="14.00">Static IP:192.168.0.6</text>
</g>
<!-- Switch&#45;&gt;SP3 -->
<g id="edge8" class="edge">
<title>Switch&#45;&gt;SP3</title>
<path fill="none" stroke="black" d="M1389.38,-586.71C1402.82,-557.61 1422.2,-515.66 1435.41,-487.08"/>
<polygon fill="black" stroke="black" points="1438.95,-488.75 1439.97,-478.21 1432.6,-485.82 1438.95,-488.75"/>
</g>
<!-- Switch&#45;&gt;SP2 -->
<g id="edge7" class="edge">
<title>Switch&#45;&gt;SP2</title>
<path fill="none" stroke="black" d="M1334.94,-586.71C1299.71,-556.68 1248.41,-512.95 1214.87,-484.37"/>
<polygon fill="black" stroke="black" points="1217.63,-481.27 1207.75,-477.45 1213.09,-486.6 1217.63,-481.27"/>
</g>
<!-- J2 -->
<g id="node15" class="node">
<title>J2</title>
<polygon fill="none" stroke="black" points="2002.5,-196 2002.5,-288 2581.5,-288 2581.5,-196 2002.5,-196"/>
<text text-anchor="middle" x="2292" y="-272.8" font-family="Times,serif" font-size="14.00">Jetson&#45;Nano&#45;B01&#45;2</text>
<polyline fill="none" stroke="black" points="2002.5,-265 2581.5,-265"/>
<text text-anchor="middle" x="2106.5" y="-249.8" font-family="Times,serif" font-size="14.00">CPU: ARM Cortex&#45;A57 (x4 cores)</text>
<polyline fill="none" stroke="black" points="2210.5,-242 2210.5,-265"/>
<text text-anchor="middle" x="2253" y="-249.8" font-family="Times,serif" font-size="14.00">RAM: 4 GB</text>
<polyline fill="none" stroke="black" points="2295.5,-242 2295.5,-265"/>
<text text-anchor="middle" x="2346" y="-249.8" font-family="Times,serif" font-size="14.00">IP: 192.168.0.7</text>
<polyline fill="none" stroke="black" points="2396.5,-242 2396.5,-265"/>
<text text-anchor="middle" x="2489" y="-249.8" font-family="Times,serif" font-size="14.00">GPU: Maxwell GPU 128&#45;Core</text>
<polyline fill="none" stroke="black" points="2002.5,-242 2581.5,-242"/>
<text text-anchor="middle" x="2292" y="-226.8" font-family="Times,serif" font-size="14.00">Disk: 256GB</text>
<polyline fill="none" stroke="black" points="2002.5,-219 2581.5,-219"/>
<text text-anchor="middle" x="2292" y="-203.8" font-family="Times,serif" font-size="14.00">System: Ubuntu</text>
</g>
<!-- SP1&#45;&gt;J2 -->
<g id="edge15" class="edge">
<title>SP1&#45;&gt;J2</title>
<path fill="none" stroke="black" d="M1669.72,-438.57C1748.17,-420.75 1881,-388.93 1993,-354 2051.72,-335.69 2115.78,-312.36 2169.49,-291.83"/>
<polygon fill="black" stroke="black" points="2170.66,-294.75 2178.75,-287.9 2168.16,-288.21 2170.66,-294.75"/>
</g>
<!-- SD -->
<g id="node12" class="node">
<title>SD</title>
<polygon fill="none" stroke="black" points="944,-161.5 944,-322.5 1308,-322.5 1308,-161.5 944,-161.5"/>
<text text-anchor="middle" x="1126" y="-307.3" font-family="Times,serif" font-size="14.00">STEAM&#45;DECK</text>
<polyline fill="none" stroke="black" points="944,-299.5 1308,-299.5"/>
<text text-anchor="middle" x="1029.5" y="-284.3" font-family="Times,serif" font-size="14.00">CPU: AMD 0405 (x8 cores)</text>
<polyline fill="none" stroke="black" points="1115,-276.5 1115,-299.5"/>
<text text-anchor="middle" x="1161" y="-284.3" font-family="Times,serif" font-size="14.00">RAM: 14 GB</text>
<polyline fill="none" stroke="black" points="1207,-276.5 1207,-299.5"/>
<text text-anchor="middle" x="1257.5" y="-284.3" font-family="Times,serif" font-size="14.00">IP: 192.168.0.5</text>
<polyline fill="none" stroke="black" points="944,-276.5 1308,-276.5"/>
<text text-anchor="middle" x="996" y="-215.3" font-family="Times,serif" font-size="14.00">DISKs</text>
<polyline fill="none" stroke="black" points="1048,-161.5 1048,-276.5"/>
<text text-anchor="middle" x="1087.5" y="-249.8" font-family="Times,serif" font-size="14.00">LVM1</text>
<polyline fill="none" stroke="black" points="1127,-230.5 1127,-276.5"/>
<text text-anchor="middle" x="1217.5" y="-261.3" font-family="Times,serif" font-size="14.00">256 GB SSD</text>
<polyline fill="none" stroke="black" points="1127,-253.5 1308,-253.5"/>
<text text-anchor="middle" x="1217.5" y="-238.3" font-family="Times,serif" font-size="14.00">RHEL_DEFAULT_LVM</text>
<polyline fill="none" stroke="black" points="1048,-230.5 1308,-230.5"/>
<text text-anchor="middle" x="1099.5" y="-192.3" font-family="Times,serif" font-size="14.00">LVM2</text>
<polyline fill="none" stroke="black" points="1151,-161.5 1151,-230.5"/>
<text text-anchor="middle" x="1229.5" y="-215.3" font-family="Times,serif" font-size="14.00">1TB TF</text>
<polyline fill="none" stroke="black" points="1151,-207.5 1308,-207.5"/>
<text text-anchor="middle" x="1191.5" y="-192.3" font-family="Times,serif" font-size="14.00">VMs</text>
<polyline fill="none" stroke="black" points="1151,-184.5 1232,-184.5"/>
<text text-anchor="middle" x="1191.5" y="-169.3" font-family="Times,serif" font-size="14.00">500GB</text>
<polyline fill="none" stroke="black" points="1232,-161.5 1232,-207.5"/>
<text text-anchor="middle" x="1270" y="-192.3" font-family="Times,serif" font-size="14.00">Share</text>
<polyline fill="none" stroke="black" points="1232,-184.5 1308,-184.5"/>
<text text-anchor="middle" x="1270" y="-169.3" font-family="Times,serif" font-size="14.00">1.5TB</text>
</g>
<!-- SP4&#45;&gt;SD -->
<g id="edge12" class="edge">
<title>SP4&#45;&gt;SD</title>
<path fill="none" stroke="black" d="M1280.24,-431.77C1260.69,-407.84 1228.01,-367.84 1197.75,-330.81"/>
<polygon fill="black" stroke="black" points="1199.97,-329 1190.93,-323.47 1194.55,-333.42 1199.97,-329"/>
</g>
<!-- J1 -->
<g id="node17" class="node">
<title>J1</title>
<polygon fill="none" stroke="black" points="1332.5,-196 1332.5,-288 1911.5,-288 1911.5,-196 1332.5,-196"/>
<text text-anchor="middle" x="1622" y="-272.8" font-family="Times,serif" font-size="14.00">Jetson&#45;Nano&#45;B01&#45;1</text>
<polyline fill="none" stroke="black" points="1332.5,-265 1911.5,-265"/>
<text text-anchor="middle" x="1436.5" y="-249.8" font-family="Times,serif" font-size="14.00">CPU: ARM Cortex&#45;A57 (x4 cores)</text>
<polyline fill="none" stroke="black" points="1540.5,-242 1540.5,-265"/>
<text text-anchor="middle" x="1583" y="-249.8" font-family="Times,serif" font-size="14.00">RAM: 4 GB</text>
<polyline fill="none" stroke="black" points="1625.5,-242 1625.5,-265"/>
<text text-anchor="middle" x="1676" y="-249.8" font-family="Times,serif" font-size="14.00">IP: 192.168.0.6</text>
<polyline fill="none" stroke="black" points="1726.5,-242 1726.5,-265"/>
<text text-anchor="middle" x="1819" y="-249.8" font-family="Times,serif" font-size="14.00">GPU: Maxwell GPU 128&#45;Core</text>
<polyline fill="none" stroke="black" points="1332.5,-242 1911.5,-242"/>
<text text-anchor="middle" x="1622" y="-226.8" font-family="Times,serif" font-size="14.00">Disk: 512 GB</text>
<polyline fill="none" stroke="black" points="1332.5,-219 1911.5,-219"/>
<text text-anchor="middle" x="1622" y="-203.8" font-family="Times,serif" font-size="14.00">System: Ubuntu</text>
</g>
<!-- SP3&#45;&gt;J1 -->
<g id="edge14" class="edge">
<title>SP3&#45;&gt;J1</title>
<path fill="none" stroke="black" d="M1467.76,-431.77C1493.72,-399.99 1542.85,-339.87 1578.7,-295.99"/>
<polygon fill="black" stroke="black" points="1581.84,-298.68 1585.46,-288.72 1576.42,-294.25 1581.84,-298.68"/>
</g>
<!-- k8s -->
<g id="node18" class="node">
<title>k8s</title>
<polygon fill="none" stroke="black" points="1330,-16.5 1330,-52.5 1384,-52.5 1384,-16.5 1330,-16.5"/>
<text text-anchor="middle" x="1357" y="-30.8" font-family="Times,serif" font-size="14.00">k8s</text>
</g>
<!-- HP&#45;&gt;k8s -->
<g id="edge16" class="edge">
<title>HP&#45;&gt;k8s</title>
<path fill="none" stroke="black" d="M935,-153C1073.11,-99.99 1244.97,-59.7 1319.56,-43.41"/>
<polygon fill="black" stroke="black" points="1312.99,-51.81 1319,-43.09 1308.86,-46.16 1312.99,-51.81"/>
</g>
<!-- J -->
<g id="node16" class="node">
<title>J</title>
</g>
<!-- J&#45;&gt;k8s -->
<g id="edge17" class="edge">
<title>J&#45;&gt;k8s</title>
<path fill="none" stroke="black" d="M1944.64,-187.5C1939.31,-174.58 1931.74,-161.93 1921,-153 1842.19,-87.43 1527.95,-51.53 1405.86,-39.83"/>
<polygon fill="black" stroke="black" points="1406.28,-36.26 1396,-38.8 1405.62,-43.23 1406.28,-36.26"/>
</g>
</g>
</svg>
