<?xml version="1.0" encoding="UTF-8" standalone="no"?>
<!DOCTYPE svg PUBLIC "-//W3C//DTD SVG 1.1//EN"
 "http://www.w3.org/Graphics/SVG/1.1/DTD/svg11.dtd">
<!-- Generated by graphviz version 2.40.1 (20161225.0304)
 -->
<!-- Title: %0 Pages: 1 -->
<svg width="2646pt" height="910pt"
 viewBox="0.00 0.00 2646.00 909.80" xmlns="http://www.w3.org/2000/svg" xmlns:xlink="http://www.w3.org/1999/xlink">
<g id="graph0" class="graph" transform="scale(1 1) rotate(0) translate(4 905.8)">
<title>%0</title>
<polygon fill="#ffffff" stroke="transparent" points="-4,4 -4,-905.8 2642,-905.8 2642,4 -4,4"/>
<g id="clust1" class="cluster">
<title>cluster_router</title>
<polygon fill="none" stroke="#000000" points="275,-594.2 275,-893.8 948,-893.8 948,-594.2 275,-594.2"/>
<text text-anchor="middle" x="302.0512" y="-877.2" font-family="Times,serif" font-size="14.00" fill="#000000">Router</text>
</g>
<g id="clust2" class="cluster">
<title>cluster_switch</title>
<polygon fill="none" stroke="#000000" points="1161,-435.6 1161,-710.4 1703,-710.4 1703,-435.6 1161,-435.6"/>
<text text-anchor="middle" x="1188.4425" y="-693.8" font-family="Times,serif" font-size="14.00" fill="#000000">Switch</text>
</g>
<g id="clust3" class="cluster">
<title>cluster_vm</title>
<polygon fill="none" stroke="#000000" points="8,-153 8,-368.4 1336,-368.4 1336,-153 8,-153"/>
<text text-anchor="middle" x="50.4057" y="-351.8" font-family="Times,serif" font-size="14.00" fill="#000000">VMs cluster</text>
</g>
<g id="clust4" class="cluster">
<title>cluster_jetson</title>
<polygon fill="none" stroke="#000000" points="1344,-190.2 1344,-331.2 2630,-331.2 2630,-190.2 1344,-190.2"/>
<text text-anchor="middle" x="1386.4078" y="-314.6" font-family="Times,serif" font-size="14.00" fill="#000000">Jetson Nano</text>
</g>
<g id="clust5" class="cluster">
<title>cluster_k8s</title>
<polygon fill="none" stroke="#000000" points="1340,-8 1340,-85.8 1416,-85.8 1416,-8 1340,-8"/>
<text text-anchor="middle" x="1378.1301" y="-69.2" font-family="Times,serif" font-size="14.00" fill="#000000">k8s cluster</text>
</g>
<!-- TPlink -->
<g id="node1" class="node">
<title>TPlink</title>
<polygon fill="none" stroke="#000000" points="544.1809,-786.1 544.1809,-860.5 683.8191,-860.5 683.8191,-786.1 544.1809,-786.1"/>
<text text-anchor="middle" x="614" y="-843.9" font-family="Times,serif" font-size="14.00" fill="#000000">TP&#45;LINK ER7206</text>
<polyline fill="none" stroke="#000000" points="544.1809,-835.7 683.8191,-835.7 "/>
<text text-anchor="middle" x="614" y="-819.1" font-family="Times,serif" font-size="14.00" fill="#000000">Gateway: 192.168.0.1</text>
<polyline fill="none" stroke="#000000" points="544.1809,-810.9 683.8191,-810.9 "/>
<text text-anchor="middle" x="614" y="-794.3" font-family="Times,serif" font-size="14.00" fill="#000000">DHCP: on</text>
</g>
<!-- P1 -->
<g id="node2" class="node">
<title>P1</title>
<polygon fill="none" stroke="#000000" points="283.0382,-615.1 283.0382,-664.7 370.9618,-664.7 370.9618,-615.1 283.0382,-615.1"/>
<text text-anchor="middle" x="327" y="-648.1" font-family="Times,serif" font-size="14.00" fill="#000000">PORT_1</text>
<polyline fill="none" stroke="#000000" points="283.0382,-639.9 370.9618,-639.9 "/>
<text text-anchor="middle" x="327" y="-623.3" font-family="Times,serif" font-size="14.00" fill="#000000">mode: WAN</text>
</g>
<!-- TPlink&#45;&gt;P1 -->
<g id="edge1" class="edge">
<title>TPlink&#45;&gt;P1</title>
<path fill="none" stroke="#000000" d="M543.9849,-799.6629C494.666,-780.7125 428.964,-750.6348 380,-710.4 367.4077,-700.0526 356.1246,-686.1225 347.2387,-673.3775"/>
<polygon fill="#000000" stroke="#000000" points="349.9623,-671.1549 341.4834,-664.802 344.1499,-675.0558 349.9623,-671.1549"/>
</g>
<!-- P3 -->
<g id="node3" class="node">
<title>P3</title>
<polygon fill="none" stroke="#000000" points="389.1413,-602.7 389.1413,-677.1 526.8587,-677.1 526.8587,-602.7 389.1413,-602.7"/>
<text text-anchor="middle" x="458" y="-660.5" font-family="Times,serif" font-size="14.00" fill="#000000">PORT_3</text>
<polyline fill="none" stroke="#000000" points="389.1413,-652.3 526.8587,-652.3 "/>
<text text-anchor="middle" x="458" y="-635.7" font-family="Times,serif" font-size="14.00" fill="#000000">mode: LAN</text>
<polyline fill="none" stroke="#000000" points="389.1413,-627.5 526.8587,-627.5 "/>
<text text-anchor="middle" x="458" y="-610.9" font-family="Times,serif" font-size="14.00" fill="#000000">Static IP: 192.168.0.2</text>
</g>
<!-- TPlink&#45;&gt;P3 -->
<g id="edge3" class="edge">
<title>TPlink&#45;&gt;P3</title>
<path fill="none" stroke="#000000" d="M582.0546,-785.7437C557.2374,-756.5676 522.7294,-715.9985 496.4074,-685.0533"/>
<polygon fill="#000000" stroke="#000000" points="499.0478,-682.7555 489.9026,-677.4061 493.7158,-687.2909 499.0478,-682.7555"/>
</g>
<!-- P4 -->
<g id="node4" class="node">
<title>P4</title>
<polygon fill="none" stroke="#000000" points="545.1413,-602.7 545.1413,-677.1 682.8587,-677.1 682.8587,-602.7 545.1413,-602.7"/>
<text text-anchor="middle" x="614" y="-660.5" font-family="Times,serif" font-size="14.00" fill="#000000">PORT_4</text>
<polyline fill="none" stroke="#000000" points="545.1413,-652.3 682.8587,-652.3 "/>
<text text-anchor="middle" x="614" y="-635.7" font-family="Times,serif" font-size="14.00" fill="#000000">mode: LAN</text>
<polyline fill="none" stroke="#000000" points="545.1413,-627.5 682.8587,-627.5 "/>
<text text-anchor="middle" x="614" y="-610.9" font-family="Times,serif" font-size="14.00" fill="#000000">Static IP: 192.168.0.4</text>
</g>
<!-- TPlink&#45;&gt;P4 -->
<g id="edge4" class="edge">
<title>TPlink&#45;&gt;P4</title>
<path fill="none" stroke="#000000" d="M614,-785.7437C614,-757.3093 614,-718.054 614,-687.4319"/>
<polygon fill="#000000" stroke="#000000" points="617.5001,-687.406 614,-677.4061 610.5001,-687.4061 617.5001,-687.406"/>
</g>
<!-- P5 -->
<g id="node5" class="node">
<title>P5</title>
<polygon fill="none" stroke="#000000" points="701.1413,-602.7 701.1413,-677.1 838.8587,-677.1 838.8587,-602.7 701.1413,-602.7"/>
<text text-anchor="middle" x="770" y="-660.5" font-family="Times,serif" font-size="14.00" fill="#000000">PORT_5</text>
<polyline fill="none" stroke="#000000" points="701.1413,-652.3 838.8587,-652.3 "/>
<text text-anchor="middle" x="770" y="-635.7" font-family="Times,serif" font-size="14.00" fill="#000000">mode: LAN</text>
<polyline fill="none" stroke="#000000" points="701.1413,-627.5 838.8587,-627.5 "/>
<text text-anchor="middle" x="770" y="-610.9" font-family="Times,serif" font-size="14.00" fill="#000000">Static IP: 192.168.0.3</text>
</g>
<!-- TPlink&#45;&gt;P5 -->
<g id="edge5" class="edge">
<title>TPlink&#45;&gt;P5</title>
<path fill="none" stroke="#000000" d="M645.9454,-785.7437C670.7626,-756.5676 705.2706,-715.9985 731.5926,-685.0533"/>
<polygon fill="#000000" stroke="#000000" points="734.2842,-687.2909 738.0974,-677.4061 728.9522,-682.7555 734.2842,-687.2909"/>
</g>
<!-- P2 -->
<g id="node6" class="node">
<title>P2</title>
<polygon fill="none" stroke="#000000" points="856.3692,-602.7 856.3692,-677.1 939.6308,-677.1 939.6308,-602.7 856.3692,-602.7"/>
<text text-anchor="middle" x="898" y="-660.5" font-family="Times,serif" font-size="14.00" fill="#000000">PORT_2</text>
<polyline fill="none" stroke="#000000" points="856.3692,-652.3 939.6308,-652.3 "/>
<text text-anchor="middle" x="898" y="-635.7" font-family="Times,serif" font-size="14.00" fill="#000000">mode: LAN</text>
<polyline fill="none" stroke="#000000" points="856.3692,-627.5 939.6308,-627.5 "/>
<text text-anchor="middle" x="898" y="-610.9" font-family="Times,serif" font-size="14.00" fill="#000000">DHCP</text>
</g>
<!-- TPlink&#45;&gt;P2 -->
<g id="edge2" class="edge">
<title>TPlink&#45;&gt;P2</title>
<path fill="none" stroke="#000000" d="M683.8312,-800.2751C733.3737,-781.5354 799.4267,-751.4558 848,-710.4 856.4231,-703.2805 864.1311,-694.4377 870.8403,-685.448"/>
<polygon fill="#000000" stroke="#000000" points="873.7662,-687.373 876.7129,-677.1961 868.063,-683.3142 873.7662,-687.373"/>
</g>
<!-- NUC -->
<g id="node14" class="node">
<title>NUC</title>
<polygon fill="none" stroke="#000000" points="15.8071,-161.5 15.8071,-335.1 582.1929,-335.1 582.1929,-161.5 15.8071,-161.5"/>
<text text-anchor="middle" x="299" y="-318.5" font-family="Times,serif" font-size="14.00" fill="#000000">NUC11&#45;SERVER</text>
<polyline fill="none" stroke="#000000" points="15.8071,-310.3 582.1929,-310.3 "/>
<text text-anchor="middle" x="103.5161" y="-293.7" font-family="Times,serif" font-size="14.00" fill="#000000">CPU: i9 11900kb (x16 core)</text>
<polyline fill="none" stroke="#000000" points="191.2251,-285.5 191.2251,-310.3 "/>
<text text-anchor="middle" x="237.3359" y="-293.7" font-family="Times,serif" font-size="14.00" fill="#000000">RAM: 64 GB</text>
<polyline fill="none" stroke="#000000" points="283.4467,-285.5 283.4467,-310.3 "/>
<text text-anchor="middle" x="334.6136" y="-293.7" font-family="Times,serif" font-size="14.00" fill="#000000">IP: 192.168.0.4</text>
<polyline fill="none" stroke="#000000" points="385.7805,-285.5 385.7805,-310.3 "/>
<text text-anchor="middle" x="483.9867" y="-293.7" font-family="Times,serif" font-size="14.00" fill="#000000">GPU: NVIDA RTX 3060 12GB</text>
<polyline fill="none" stroke="#000000" points="15.8071,-285.5 582.1929,-285.5 "/>
<text text-anchor="middle" x="116.8576" y="-219.3" font-family="Times,serif" font-size="14.00" fill="#000000">DISKs</text>
<polyline fill="none" stroke="#000000" points="217.9081,-161.5 217.9081,-285.5 "/>
<text text-anchor="middle" x="281.96" y="-256.5" font-family="Times,serif" font-size="14.00" fill="#000000">LVM1</text>
<polyline fill="none" stroke="#000000" points="346.0119,-235.9 346.0119,-285.5 "/>
<text text-anchor="middle" x="463.7181" y="-268.9" font-family="Times,serif" font-size="14.00" fill="#000000">1TB SSD</text>
<polyline fill="none" stroke="#000000" points="346.0119,-260.7 581.4243,-260.7 "/>
<text text-anchor="middle" x="463.7181" y="-244.1" font-family="Times,serif" font-size="14.00" fill="#000000">RHEL_DEFAULT_LVM</text>
<polyline fill="none" stroke="#000000" points="217.9081,-235.9 581.4243,-235.9 "/>
<text text-anchor="middle" x="292.46" y="-194.5" font-family="Times,serif" font-size="14.00" fill="#000000">LVM2</text>
<polyline fill="none" stroke="#000000" points="367.0119,-161.5 367.0119,-235.9 "/>
<text text-anchor="middle" x="474.1781" y="-219.3" font-family="Times,serif" font-size="14.00" fill="#000000">5TB HDD x3</text>
<polyline fill="none" stroke="#000000" points="367.0119,-211.1 581.3443,-211.1 "/>
<text text-anchor="middle" x="419.2335" y="-194.5" font-family="Times,serif" font-size="14.00" fill="#000000">Vms</text>
<polyline fill="none" stroke="#000000" points="367.0119,-186.3 471.4551,-186.3 "/>
<text text-anchor="middle" x="419.2335" y="-169.7" font-family="Times,serif" font-size="14.00" fill="#000000">500GB</text>
<polyline fill="none" stroke="#000000" points="471.4551,-161.5 471.4551,-211.1 "/>
<text text-anchor="middle" x="526.3997" y="-194.5" font-family="Times,serif" font-size="14.00" fill="#000000">Share</text>
<polyline fill="none" stroke="#000000" points="471.4551,-186.3 581.3443,-186.3 "/>
<text text-anchor="middle" x="526.3997" y="-169.7" font-family="Times,serif" font-size="14.00" fill="#000000">14.5 TB</text>
</g>
<!-- P4&#45;&gt;NUC -->
<g id="edge11" class="edge">
<title>P4&#45;&gt;NUC</title>
<path fill="none" stroke="#000000" d="M583.7965,-602.3517C536.2093,-543.1926 442.3144,-426.4649 375.3486,-343.2146"/>
<polygon fill="#000000" stroke="#000000" points="377.9496,-340.8639 368.9545,-335.2657 372.4952,-345.2514 377.9496,-340.8639"/>
</g>
<!-- HP -->
<g id="node13" class="node">
<title>HP</title>
<polygon fill="none" stroke="#000000" points="599.791,-161.5 599.791,-335.1 940.209,-335.1 940.209,-161.5 599.791,-161.5"/>
<text text-anchor="middle" x="770" y="-318.5" font-family="Times,serif" font-size="14.00" fill="#000000">HP&#45;SERVER</text>
<polyline fill="none" stroke="#000000" points="599.791,-310.3 940.209,-310.3 "/>
<text text-anchor="middle" x="676.2223" y="-293.7" font-family="Times,serif" font-size="14.00" fill="#000000">CPU: i7 7700 (x8 cores)</text>
<polyline fill="none" stroke="#000000" points="752.6536,-285.5 752.6536,-310.3 "/>
<text text-anchor="middle" x="797.0144" y="-293.7" font-family="Times,serif" font-size="14.00" fill="#000000">RAM:32 GB</text>
<polyline fill="none" stroke="#000000" points="841.3752,-285.5 841.3752,-310.3 "/>
<text text-anchor="middle" x="890.7921" y="-293.7" font-family="Times,serif" font-size="14.00" fill="#000000">IP:192.168.0.3</text>
<polyline fill="none" stroke="#000000" points="599.791,-285.5 940.209,-285.5 "/>
<text text-anchor="middle" x="644.3415" y="-219.3" font-family="Times,serif" font-size="14.00" fill="#000000">DISKs</text>
<polyline fill="none" stroke="#000000" points="688.892,-161.5 688.892,-285.5 "/>
<text text-anchor="middle" x="724.4439" y="-256.5" font-family="Times,serif" font-size="14.00" fill="#000000">LVM1</text>
<polyline fill="none" stroke="#000000" points="759.9958,-235.9 759.9958,-285.5 "/>
<text text-anchor="middle" x="849.702" y="-268.9" font-family="Times,serif" font-size="14.00" fill="#000000">1TB SSD</text>
<polyline fill="none" stroke="#000000" points="759.9958,-260.7 939.4082,-260.7 "/>
<text text-anchor="middle" x="849.702" y="-244.1" font-family="Times,serif" font-size="14.00" fill="#000000">RHEL_DEFAULT_LVM</text>
<polyline fill="none" stroke="#000000" points="688.892,-235.9 939.4082,-235.9 "/>
<text text-anchor="middle" x="737.9439" y="-194.5" font-family="Times,serif" font-size="14.00" fill="#000000">LVM2</text>
<polyline fill="none" stroke="#000000" points="786.9958,-161.5 786.9958,-235.9 "/>
<text text-anchor="middle" x="862.912" y="-219.3" font-family="Times,serif" font-size="14.00" fill="#000000">2TB SSD</text>
<polyline fill="none" stroke="#000000" points="786.9958,-211.1 938.8282,-211.1 "/>
<text text-anchor="middle" x="826.2174" y="-194.5" font-family="Times,serif" font-size="14.00" fill="#000000">VMs</text>
<polyline fill="none" stroke="#000000" points="786.9958,-186.3 865.439,-186.3 "/>
<text text-anchor="middle" x="826.2174" y="-169.7" font-family="Times,serif" font-size="14.00" fill="#000000">500GB</text>
<polyline fill="none" stroke="#000000" points="865.439,-161.5 865.439,-211.1 "/>
<text text-anchor="middle" x="902.1336" y="-194.5" font-family="Times,serif" font-size="14.00" fill="#000000">Share</text>
<polyline fill="none" stroke="#000000" points="865.439,-186.3 938.8282,-186.3 "/>
<text text-anchor="middle" x="902.1336" y="-169.7" font-family="Times,serif" font-size="14.00" fill="#000000">1.5TB</text>
</g>
<!-- P5&#45;&gt;HP -->
<g id="edge10" class="edge">
<title>P5&#45;&gt;HP</title>
<path fill="none" stroke="#000000" d="M770,-602.3517C770,-543.7293 770,-428.5782 770,-345.4887"/>
<polygon fill="#000000" stroke="#000000" points="773.5001,-345.2657 770,-335.2657 766.5001,-345.2657 773.5001,-345.2657"/>
</g>
<!-- SP2 -->
<g id="node11" class="node">
<title>SP2</title>
<polygon fill="none" stroke="#000000" points="1168.8608,-444.1 1168.8608,-493.7 1231.1392,-493.7 1231.1392,-444.1 1168.8608,-444.1"/>
<text text-anchor="middle" x="1200" y="-477.1" font-family="Times,serif" font-size="14.00" fill="#000000">PORT 2</text>
<polyline fill="none" stroke="#000000" points="1168.8608,-468.9 1231.1392,-468.9 "/>
<text text-anchor="middle" x="1200" y="-452.3" font-family="Times,serif" font-size="14.00" fill="#000000">DHCP</text>
</g>
<!-- P2&#45;&gt;SP2 -->
<g id="edge13" class="edge">
<title>P2&#45;&gt;SP2</title>
<path fill="none" stroke="#000000" d="M939.6747,-616.3027C997.8864,-583.3418 1102.8188,-523.9264 1160.0762,-491.5059"/>
<polygon fill="#000000" stroke="#000000" points="1161.8645,-494.5154 1168.8419,-486.5425 1158.4154,-488.4241 1161.8645,-494.5154"/>
</g>
<!-- Switch -->
<g id="node7" class="node">
<title>Switch</title>
<polygon fill="none" stroke="#000000" points="1312.9309,-602.7 1312.9309,-677.1 1477.0691,-677.1 1477.0691,-602.7 1312.9309,-602.7"/>
<text text-anchor="middle" x="1395" y="-660.5" font-family="Times,serif" font-size="14.00" fill="#000000">NETGEAR GS305E</text>
<polyline fill="none" stroke="#000000" points="1312.9309,-652.3 1477.0691,-652.3 "/>
<text text-anchor="middle" x="1395" y="-635.7" font-family="Times,serif" font-size="14.00" fill="#000000">IP: 192.168.0.239</text>
<polyline fill="none" stroke="#000000" points="1312.9309,-627.5 1477.0691,-627.5 "/>
<text text-anchor="middle" x="1395" y="-610.9" font-family="Times,serif" font-size="14.00" fill="#000000">DHCP Client of TP&#45;LINK</text>
</g>
<!-- SP1 -->
<g id="node8" class="node">
<title>SP1</title>
<polygon fill="none" stroke="#000000" points="1557.1413,-444.1 1557.1413,-493.7 1694.8587,-493.7 1694.8587,-444.1 1557.1413,-444.1"/>
<text text-anchor="middle" x="1626" y="-477.1" font-family="Times,serif" font-size="14.00" fill="#000000">PORT 1</text>
<polyline fill="none" stroke="#000000" points="1557.1413,-468.9 1694.8587,-468.9 "/>
<text text-anchor="middle" x="1626" y="-452.3" font-family="Times,serif" font-size="14.00" fill="#000000">Static IP: 192.168.0.7</text>
</g>
<!-- Switch&#45;&gt;SP1 -->
<g id="edge6" class="edge">
<title>Switch&#45;&gt;SP1</title>
<path fill="none" stroke="#000000" d="M1445.4085,-602.5846C1486.877,-571.8871 1544.9668,-528.8856 1583.9605,-500.0202"/>
<polygon fill="#000000" stroke="#000000" points="1586.5096,-502.4878 1592.4646,-493.7249 1582.3448,-496.8616 1586.5096,-502.4878"/>
</g>
<!-- SP4 -->
<g id="node9" class="node">
<title>SP4</title>
<polygon fill="none" stroke="#000000" points="1249.1413,-444.1 1249.1413,-493.7 1386.8587,-493.7 1386.8587,-444.1 1249.1413,-444.1"/>
<text text-anchor="middle" x="1318" y="-477.1" font-family="Times,serif" font-size="14.00" fill="#000000">PORT 4</text>
<polyline fill="none" stroke="#000000" points="1249.1413,-468.9 1386.8587,-468.9 "/>
<text text-anchor="middle" x="1318" y="-452.3" font-family="Times,serif" font-size="14.00" fill="#000000">Static IP: 192.168.0.5</text>
</g>
<!-- Switch&#45;&gt;SP4 -->
<g id="edge9" class="edge">
<title>Switch&#45;&gt;SP4</title>
<path fill="none" stroke="#000000" d="M1378.102,-602.3733C1364.7778,-572.7832 1346.3498,-531.8586 1333.4228,-503.1506"/>
<polygon fill="#000000" stroke="#000000" points="1336.5624,-501.5984 1329.2651,-493.9172 1330.1796,-504.4725 1336.5624,-501.5984"/>
</g>
<!-- SP3 -->
<g id="node10" class="node">
<title>SP3</title>
<polygon fill="none" stroke="#000000" points="1404.8913,-444.1 1404.8913,-493.7 1539.1087,-493.7 1539.1087,-444.1 1404.8913,-444.1"/>
<text text-anchor="middle" x="1472" y="-477.1" font-family="Times,serif" font-size="14.00" fill="#000000">PORT 3</text>
<polyline fill="none" stroke="#000000" points="1404.8913,-468.9 1539.1087,-468.9 "/>
<text text-anchor="middle" x="1472" y="-452.3" font-family="Times,serif" font-size="14.00" fill="#000000">Static IP:192.168.0.6</text>
</g>
<!-- Switch&#45;&gt;SP3 -->
<g id="edge8" class="edge">
<title>Switch&#45;&gt;SP3</title>
<path fill="none" stroke="#000000" d="M1411.898,-602.3733C1425.2222,-572.7832 1443.6502,-531.8586 1456.5772,-503.1506"/>
<polygon fill="#000000" stroke="#000000" points="1459.8204,-504.4725 1460.7349,-493.9172 1453.4376,-501.5984 1459.8204,-504.4725"/>
</g>
<!-- Switch&#45;&gt;SP2 -->
<g id="edge7" class="edge">
<title>Switch&#45;&gt;SP2</title>
<path fill="none" stroke="#000000" d="M1352.2064,-602.3733C1317.4363,-571.8826 1268.9423,-529.3571 1236.1081,-500.564"/>
<polygon fill="#000000" stroke="#000000" points="1238.3547,-497.879 1228.5284,-493.9172 1233.7394,-503.142 1238.3547,-497.879"/>
</g>
<!-- J2 -->
<g id="node15" class="node">
<title>J2</title>
<polygon fill="none" stroke="#000000" points="2032.3495,-198.7 2032.3495,-297.9 2621.6505,-297.9 2621.6505,-198.7 2032.3495,-198.7"/>
<text text-anchor="middle" x="2327" y="-281.3" font-family="Times,serif" font-size="14.00" fill="#000000">Jetson&#45;Nano&#45;B01&#45;2</text>
<polyline fill="none" stroke="#000000" points="2032.3495,-273.1 2621.6505,-273.1 "/>
<text text-anchor="middle" x="2138.7142" y="-256.5" font-family="Times,serif" font-size="14.00" fill="#000000">CPU: ARM Cortex&#45;A57 (x4 cores)</text>
<polyline fill="none" stroke="#000000" points="2245.0789,-248.3 2245.0789,-273.1 "/>
<text text-anchor="middle" x="2287.6897" y="-256.5" font-family="Times,serif" font-size="14.00" fill="#000000">RAM: 4 GB</text>
<polyline fill="none" stroke="#000000" points="2330.3005,-248.3 2330.3005,-273.1 "/>
<text text-anchor="middle" x="2381.4674" y="-256.5" font-family="Times,serif" font-size="14.00" fill="#000000">IP: 192.168.0.7</text>
<polyline fill="none" stroke="#000000" points="2432.6343,-248.3 2432.6343,-273.1 "/>
<text text-anchor="middle" x="2527.1424" y="-256.5" font-family="Times,serif" font-size="14.00" fill="#000000">GPU: Maxwell GPU 128&#45;Core</text>
<polyline fill="none" stroke="#000000" points="2032.3495,-248.3 2621.6505,-248.3 "/>
<text text-anchor="middle" x="2327" y="-231.7" font-family="Times,serif" font-size="14.00" fill="#000000">Disk: 256GB</text>
<polyline fill="none" stroke="#000000" points="2032.3495,-223.5 2621.6505,-223.5 "/>
<text text-anchor="middle" x="2327" y="-206.9" font-family="Times,serif" font-size="14.00" fill="#000000">System: Ubuntu</text>
</g>
<!-- SP1&#45;&gt;J2 -->
<g id="edge15" class="edge">
<title>SP1&#45;&gt;J2</title>
<path fill="none" stroke="#000000" d="M1694.8983,-454.2821C1774.6814,-436.7067 1909.664,-404.9663 2023,-368.4 2082.7314,-349.1285 2147.5939,-324.0916 2202.0046,-301.8682"/>
<polygon fill="#000000" stroke="#000000" points="2203.4148,-305.0728 2211.3399,-298.0411 2200.7596,-298.5959 2203.4148,-305.0728"/>
</g>
<!-- SD -->
<g id="node12" class="node">
<title>SD</title>
<polygon fill="none" stroke="#000000" points="958.4074,-161.5 958.4074,-335.1 1327.5926,-335.1 1327.5926,-161.5 958.4074,-161.5"/>
<text text-anchor="middle" x="1143" y="-318.5" font-family="Times,serif" font-size="14.00" fill="#000000">STEAM&#45;DECK</text>
<polyline fill="none" stroke="#000000" points="958.4074,-310.3 1327.5926,-310.3 "/>
<text text-anchor="middle" x="1045.7223" y="-293.7" font-family="Times,serif" font-size="14.00" fill="#000000">CPU: AMD 0405 (x8 cores)</text>
<polyline fill="none" stroke="#000000" points="1133.0372,-285.5 1133.0372,-310.3 "/>
<text text-anchor="middle" x="1179.148" y="-293.7" font-family="Times,serif" font-size="14.00" fill="#000000">RAM: 14 GB</text>
<polyline fill="none" stroke="#000000" points="1225.2588,-285.5 1225.2588,-310.3 "/>
<text text-anchor="middle" x="1276.4257" y="-293.7" font-family="Times,serif" font-size="14.00" fill="#000000">IP: 192.168.0.5</text>
<polyline fill="none" stroke="#000000" points="958.4074,-285.5 1327.5926,-285.5 "/>
<text text-anchor="middle" x="1009.9579" y="-219.3" font-family="Times,serif" font-size="14.00" fill="#000000">DISKs</text>
<polyline fill="none" stroke="#000000" points="1061.5084,-161.5 1061.5084,-285.5 "/>
<text text-anchor="middle" x="1101.0603" y="-256.5" font-family="Times,serif" font-size="14.00" fill="#000000">LVM1</text>
<polyline fill="none" stroke="#000000" points="1140.6122,-235.9 1140.6122,-285.5 "/>
<text text-anchor="middle" x="1233.8184" y="-268.9" font-family="Times,serif" font-size="14.00" fill="#000000">256 GB SSD</text>
<polyline fill="none" stroke="#000000" points="1140.6122,-260.7 1327.0246,-260.7 "/>
<text text-anchor="middle" x="1233.8184" y="-244.1" font-family="Times,serif" font-size="14.00" fill="#000000">RHEL_DEFAULT_LVM</text>
<polyline fill="none" stroke="#000000" points="1061.5084,-235.9 1327.0246,-235.9 "/>
<text text-anchor="middle" x="1114.0603" y="-194.5" font-family="Times,serif" font-size="14.00" fill="#000000">LVM2</text>
<polyline fill="none" stroke="#000000" points="1166.6122,-161.5 1166.6122,-235.9 "/>
<text text-anchor="middle" x="1246.5284" y="-219.3" font-family="Times,serif" font-size="14.00" fill="#000000">1TB TF</text>
<polyline fill="none" stroke="#000000" points="1166.6122,-211.1 1326.4446,-211.1 "/>
<text text-anchor="middle" x="1207.8338" y="-194.5" font-family="Times,serif" font-size="14.00" fill="#000000">VMs</text>
<polyline fill="none" stroke="#000000" points="1166.6122,-186.3 1249.0554,-186.3 "/>
<text text-anchor="middle" x="1207.8338" y="-169.7" font-family="Times,serif" font-size="14.00" fill="#000000">500GB</text>
<polyline fill="none" stroke="#000000" points="1249.0554,-161.5 1249.0554,-211.1 "/>
<text text-anchor="middle" x="1287.75" y="-194.5" font-family="Times,serif" font-size="14.00" fill="#000000">Share</text>
<polyline fill="none" stroke="#000000" points="1249.0554,-186.3 1326.4446,-186.3 "/>
<text text-anchor="middle" x="1287.75" y="-169.7" font-family="Times,serif" font-size="14.00" fill="#000000">1.5TB</text>
</g>
<!-- SP4&#45;&gt;SD -->
<g id="edge12" class="edge">
<title>SP4&#45;&gt;SD</title>
<path fill="none" stroke="#000000" d="M1298.2655,-444.0232C1278.6958,-419.3543 1247.4738,-379.9966 1218.1423,-343.0222"/>
<polygon fill="#000000" stroke="#000000" points="1220.8737,-340.8337 1211.9169,-335.1746 1215.3897,-345.1841 1220.8737,-340.8337"/>
</g>
<!-- J1 -->
<g id="node17" class="node">
<title>J1</title>
<polygon fill="none" stroke="#000000" points="1352.3495,-198.7 1352.3495,-297.9 1941.6505,-297.9 1941.6505,-198.7 1352.3495,-198.7"/>
<text text-anchor="middle" x="1647" y="-281.3" font-family="Times,serif" font-size="14.00" fill="#000000">Jetson&#45;Nano&#45;B01&#45;1</text>
<polyline fill="none" stroke="#000000" points="1352.3495,-273.1 1941.6505,-273.1 "/>
<text text-anchor="middle" x="1458.7142" y="-256.5" font-family="Times,serif" font-size="14.00" fill="#000000">CPU: ARM Cortex&#45;A57 (x4 cores)</text>
<polyline fill="none" stroke="#000000" points="1565.0789,-248.3 1565.0789,-273.1 "/>
<text text-anchor="middle" x="1607.6897" y="-256.5" font-family="Times,serif" font-size="14.00" fill="#000000">RAM: 4 GB</text>
<polyline fill="none" stroke="#000000" points="1650.3005,-248.3 1650.3005,-273.1 "/>
<text text-anchor="middle" x="1701.4674" y="-256.5" font-family="Times,serif" font-size="14.00" fill="#000000">IP: 192.168.0.6</text>
<polyline fill="none" stroke="#000000" points="1752.6343,-248.3 1752.6343,-273.1 "/>
<text text-anchor="middle" x="1847.1424" y="-256.5" font-family="Times,serif" font-size="14.00" fill="#000000">GPU: Maxwell GPU 128&#45;Core</text>
<polyline fill="none" stroke="#000000" points="1352.3495,-248.3 1941.6505,-248.3 "/>
<text text-anchor="middle" x="1647" y="-231.7" font-family="Times,serif" font-size="14.00" fill="#000000">Disk: 512 GB</text>
<polyline fill="none" stroke="#000000" points="1352.3495,-223.5 1941.6505,-223.5 "/>
<text text-anchor="middle" x="1647" y="-206.9" font-family="Times,serif" font-size="14.00" fill="#000000">System: Ubuntu</text>
</g>
<!-- SP3&#45;&gt;J1 -->
<g id="edge14" class="edge">
<title>SP3&#45;&gt;J1</title>
<path fill="none" stroke="#000000" d="M1491.7345,-444.0232C1518.1284,-410.7518 1565.7185,-350.7611 1601.2788,-305.9348"/>
<polygon fill="#000000" stroke="#000000" points="1604.0739,-308.0431 1607.5468,-298.0336 1598.5899,-303.6927 1604.0739,-308.0431"/>
</g>
<!-- k8s -->
<g id="node18" class="node">
<title>k8s</title>
<polygon fill="none" stroke="#000000" points="1351,-16.5 1351,-52.5 1405,-52.5 1405,-16.5 1351,-16.5"/>
<text text-anchor="middle" x="1377.7223" y="-30.3" font-family="Times,serif" font-size="14.00" fill="#000000">k8s</text>
</g>
<!-- HP&#45;&gt;k8s -->
<g id="edge16" class="edge">
<title>HP&#45;&gt;k8s</title>
<path fill="none" stroke="#000000" d="M949,-153C1083,-99.5769 1249.7168,-61.0504 1330.1628,-44.106"/>
<polygon fill="#000000" stroke="#000000" points="1330.9289,-47.5216 1340.002,-42.0508 1329.4976,-40.6694 1330.9289,-47.5216"/>
</g>
<!-- J -->
<g id="node16" class="node">
<title>J</title>
</g>
<!-- J&#45;&gt;k8s -->
<g id="edge17" class="edge">
<title>J&#45;&gt;k8s</title>
<path fill="none" stroke="#000000" d="M1975.4185,-190.2025C1970.0906,-176.2826 1962.3219,-162.6682 1951,-153 1871.5008,-85.1131 1549.4495,-49.7887 1426.2518,-38.549"/>
<polygon fill="#000000" stroke="#000000" points="1426.2706,-35.0366 1415.9974,-37.6274 1425.6439,-42.0085 1426.2706,-35.0366"/>
</g>
</g>
</svg>
