<?xml version="1.0" standalone="no"?>
<svg xmlns="http://www.w3.org/2000/svg" xmlns:xlink="http://www.w3.org/1999/xlink" width="2646pt" height="910pt" viewBox="0.00 0.00 2646.00 909.80">
<g id="graph0" class="graph" transform="translate(-854.8830854056921,1627.0862954321074) scale(1.955987205755979)" data-name="">
<polygon fill="white" stroke="none" points="-4,4 -4,-905.8 2642,-905.8 2642,4 -4,4" style=""/>
<g id="clust1" class="cluster" data-name="cluster_router">

<polygon fill="none" stroke="black" points="275,-594.2 275,-893.8 948,-893.8 948,-594.2 275,-594.2" style=""/>
<text text-anchor="middle" x="302.05" y="-877.2" font-family="Times,serif" font-size="14.00" style="">Router</text>
</g>
<g id="clust2" class="cluster" data-name="cluster_switch">

<polygon fill="none" stroke="black" points="1161,-435.6 1161,-710.4 1703,-710.4 1703,-435.6 1161,-435.6" style=""/>
<text text-anchor="middle" x="1188.44" y="-693.8" font-family="Times,serif" font-size="14.00" style="">Switch</text>
</g>
<g id="clust3" class="cluster" data-name="cluster_vm">

<polygon fill="none" stroke="black" points="8,-153 8,-368.4 1336,-368.4 1336,-153 8,-153" style=""/>
<text text-anchor="middle" x="50.41" y="-351.8" font-family="Times,serif" font-size="14.00" style="">VMs cluster</text>
</g>
<g id="clust4" class="cluster" data-name="cluster_jetson">

<polygon fill="none" stroke="black" points="1344,-190.2 1344,-331.2 2630,-331.2 2630,-190.2 1344,-190.2" style=""/>
<text text-anchor="middle" x="1386.41" y="-314.6" font-family="Times,serif" font-size="14.00" style="">Jetson Nano</text>
</g>
<g id="clust5" class="cluster" data-name="cluster_k8s">

<polygon fill="none" stroke="black" points="1340,-8 1340,-85.8 1416,-85.8 1416,-8 1340,-8" style=""/>
<text text-anchor="middle" x="1378.13" y="-69.2" font-family="Times,serif" font-size="14.00" style="">k8s cluster</text>
</g>
<!-- TPlink -->
<g id="node1" class="node" pointer-events="visible" data-name="TPlink">

<polygon fill="none" stroke="black" points="544.18,-786.1 544.18,-860.5 683.82,-860.5 683.82,-786.1 544.18,-786.1" style=""/>
<text text-anchor="middle" x="614" y="-843.9" font-family="Times,serif" font-size="14.00" style="">TP-LINK ER7206</text>
<polyline fill="none" stroke="black" points="544.18,-835.7 683.82,-835.7" style=""/>
<text text-anchor="middle" x="614" y="-819.1" font-family="Times,serif" font-size="14.00" style="">Gateway: 192.168.0.1</text>
<polyline fill="none" stroke="black" points="544.18,-810.9 683.82,-810.9" style=""/>
<text text-anchor="middle" x="614" y="-794.3" font-family="Times,serif" font-size="14.00" style="">DHCP: on</text>
</g>
<!-- P1 -->
<g id="node2" class="node" pointer-events="visible" data-name="P1">

<polygon fill="none" stroke="black" points="283.04,-615.1 283.04,-664.7 370.96,-664.7 370.96,-615.1 283.04,-615.1" style=""/>
<text text-anchor="middle" x="327" y="-648.1" font-family="Times,serif" font-size="14.00" style="">PORT_1</text>
<polyline fill="none" stroke="black" points="283.04,-639.9 370.96,-639.9" style=""/>
<text text-anchor="middle" x="327" y="-623.3" font-family="Times,serif" font-size="14.00" style="">mode: WAN</text>
</g>
<!-- TPlink&#45;&gt;P1 -->
<g id="edge1" class="edge" data-name="TPlink-&gt;P1">

<path fill="none" stroke="black" d="M544.32,-798.99C495.01,-780.23 429.18,-750.39 380,-710.4 367.43,-700.18 356.12,-686.39 347.22,-673.79" style=""/>
<polygon fill="black" stroke="black" points="350.25,-672.03 341.74,-665.72 344.46,-675.96 350.25,-672.03" style=""/>
</g>
<!-- P3 -->
<g id="node3" class="node" pointer-events="visible" data-name="P3">

<polygon fill="none" stroke="black" points="389.14,-602.7 389.14,-677.1 526.86,-677.1 526.86,-602.7 389.14,-602.7" style=""/>
<text text-anchor="middle" x="458" y="-660.5" font-family="Times,serif" font-size="14.00" style="">PORT_3</text>
<polyline fill="none" stroke="black" points="389.14,-652.3 526.86,-652.3" style=""/>
<text text-anchor="middle" x="458" y="-635.7" font-family="Times,serif" font-size="14.00" style="">mode: LAN</text>
<polyline fill="none" stroke="black" points="389.14,-627.5 526.86,-627.5" style=""/>
<text text-anchor="middle" x="458" y="-610.9" font-family="Times,serif" font-size="14.00" style="">Static IP: 192.168.0.2</text>
</g>
<!-- TPlink&#45;&gt;P3 -->
<g id="edge3" class="edge" data-name="TPlink-&gt;P3">

<path fill="none" stroke="black" d="M583.18,-786.46C558.26,-757.49 523.06,-716.55 496.32,-685.46" style=""/>
<polygon fill="black" stroke="black" points="499.18,-683.42 490.01,-678.12 493.88,-687.99 499.18,-683.42" style=""/>
</g>
<!-- P4 -->
<g id="node4" class="node" pointer-events="visible" data-name="P4">

<polygon fill="none" stroke="black" points="545.14,-602.7 545.14,-677.1 682.86,-677.1 682.86,-602.7 545.14,-602.7" style=""/>
<text text-anchor="middle" x="614" y="-660.5" font-family="Times,serif" font-size="14.00" style="">PORT_4</text>
<polyline fill="none" stroke="black" points="545.14,-652.3 682.86,-652.3" style=""/>
<text text-anchor="middle" x="614" y="-635.7" font-family="Times,serif" font-size="14.00" style="">mode: LAN</text>
<polyline fill="none" stroke="black" points="545.14,-627.5 682.86,-627.5" style=""/>
<text text-anchor="middle" x="614" y="-610.9" font-family="Times,serif" font-size="14.00" style="">Static IP: 192.168.0.4</text>
</g>
<!-- TPlink&#45;&gt;P4 -->
<g id="edge4" class="edge" data-name="TPlink-&gt;P4">

<path fill="none" stroke="black" d="M614,-786.46C614,-758.35 614,-718.99 614,-688.28" style=""/>
<polygon fill="black" stroke="black" points="617.5,-688.49 614,-678.49 610.5,-688.49 617.5,-688.49" style=""/>
</g>
<!-- P5 -->
<g id="node5" class="node" pointer-events="visible" data-name="P5">

<polygon fill="none" stroke="black" points="701.14,-602.7 701.14,-677.1 838.86,-677.1 838.86,-602.7 701.14,-602.7" style=""/>
<text text-anchor="middle" x="770" y="-660.5" font-family="Times,serif" font-size="14.00" style="">PORT_5</text>
<polyline fill="none" stroke="black" points="701.14,-652.3 838.86,-652.3" style=""/>
<text text-anchor="middle" x="770" y="-635.7" font-family="Times,serif" font-size="14.00" style="">mode: LAN</text>
<polyline fill="none" stroke="black" points="701.14,-627.5 838.86,-627.5" style=""/>
<text text-anchor="middle" x="770" y="-610.9" font-family="Times,serif" font-size="14.00" style="">Static IP: 192.168.0.3</text>
</g>
<!-- TPlink&#45;&gt;P5 -->
<g id="edge5" class="edge" data-name="TPlink-&gt;P5">

<path fill="none" stroke="black" d="M644.82,-786.46C669.74,-757.49 704.94,-716.55 731.68,-685.46" style=""/>
<polygon fill="black" stroke="black" points="734.12,-687.99 737.99,-678.12 728.82,-683.42 734.12,-687.99" style=""/>
</g>
<!-- P2 -->
<g id="node6" class="node" pointer-events="visible" data-name="P2">

<polygon fill="none" stroke="black" points="856.37,-602.7 856.37,-677.1 939.63,-677.1 939.63,-602.7 856.37,-602.7" style=""/>
<text text-anchor="middle" x="898" y="-660.5" font-family="Times,serif" font-size="14.00" style="">PORT_2</text>
<polyline fill="none" stroke="black" points="856.37,-652.3 939.63,-652.3" style=""/>
<text text-anchor="middle" x="898" y="-635.7" font-family="Times,serif" font-size="14.00" style="">mode: LAN</text>
<polyline fill="none" stroke="black" points="856.37,-627.5 939.63,-627.5" style=""/>
<text text-anchor="middle" x="898" y="-610.9" font-family="Times,serif" font-size="14.00" style="">DHCP</text>
</g>
<!-- TPlink&#45;&gt;P2 -->
<g id="edge2" class="edge" data-name="TPlink-&gt;P2">

<path fill="none" stroke="black" d="M683.75,-799.51C733.26,-780.95 799.3,-751.14 848,-710.4 856.29,-703.46 863.91,-694.86 870.56,-686.09" style=""/>
<polygon fill="black" stroke="black" points="873.25,-688.35 876.26,-678.19 867.57,-684.26 873.25,-688.35" style=""/>
</g>
<!-- NUC -->
<g id="node14" class="node" pointer-events="visible" data-name="NUC">

<polygon fill="none" stroke="black" points="15.78,-161.5 15.78,-335.1 582.22,-335.1 582.22,-161.5 15.78,-161.5" style=""/>
<text text-anchor="middle" x="299" y="-318.5" font-family="Times,serif" font-size="14.00" style="">NUC11-SERVER</text>
<polyline fill="none" stroke="black" points="15.78,-310.3 582.22,-310.3" style=""/>
<text text-anchor="middle" x="103.49" y="-293.7" font-family="Times,serif" font-size="14.00" style="">CPU: i9 11900kb (x16 core)</text>
<polyline fill="none" stroke="black" points="191.2,-285.5 191.2,-310.3" style=""/>
<text text-anchor="middle" x="237.32" y="-293.7" font-family="Times,serif" font-size="14.00" style="">RAM: 64 GB</text>
<polyline fill="none" stroke="black" points="283.44,-285.5 283.44,-310.3" style=""/>
<text text-anchor="middle" x="334.61" y="-293.7" font-family="Times,serif" font-size="14.00" style="">IP: 192.168.0.4</text>
<polyline fill="none" stroke="black" points="385.78,-285.5 385.78,-310.3" style=""/>
<text text-anchor="middle" x="484" y="-293.7" font-family="Times,serif" font-size="14.00" style="">GPU: NVIDA RTX 3060 12GB</text>
<polyline fill="none" stroke="black" points="15.78,-285.5 582.22,-285.5" style=""/>
<text text-anchor="middle" x="116.83" y="-219.3" font-family="Times,serif" font-size="14.00" style="">DISKs</text>
<polyline fill="none" stroke="black" points="217.89,-161.5 217.89,-285.5" style=""/>
<text text-anchor="middle" x="281.95" y="-256.5" font-family="Times,serif" font-size="14.00" style="">LVM1</text>
<polyline fill="none" stroke="black" points="346,-235.9 346,-285.5" style=""/>
<text text-anchor="middle" x="463.72" y="-268.9" font-family="Times,serif" font-size="14.00" style="">1TB SSD</text>
<polyline fill="none" stroke="black" points="346,-260.7 581.44,-260.7" style=""/>
<text text-anchor="middle" x="463.72" y="-244.1" font-family="Times,serif" font-size="14.00" style="">RHEL_DEFAULT_LVM</text>
<polyline fill="none" stroke="black" points="217.89,-235.9 581.44,-235.9" style=""/>
<text text-anchor="middle" x="292.45" y="-194.5" font-family="Times,serif" font-size="14.00" style="">LVM2</text>
<polyline fill="none" stroke="black" points="367,-161.5 367,-235.9" style=""/>
<text text-anchor="middle" x="474.17" y="-219.3" font-family="Times,serif" font-size="14.00" style="">5TB HDD x3</text>
<polyline fill="none" stroke="black" points="367,-211.1 581.34,-211.1" style=""/>
<text text-anchor="middle" x="419.23" y="-194.5" font-family="Times,serif" font-size="14.00" style="">Vms</text>
<polyline fill="none" stroke="black" points="367,-186.3 471.45,-186.3" style=""/>
<text text-anchor="middle" x="419.23" y="-169.7" font-family="Times,serif" font-size="14.00" style="">500GB</text>
<polyline fill="none" stroke="black" points="471.45,-161.5 471.45,-211.1" style=""/>
<text text-anchor="middle" x="526.4" y="-194.5" font-family="Times,serif" font-size="14.00" style="">Share</text>
<polyline fill="none" stroke="black" points="471.45,-186.3 581.34,-186.3" style=""/>
<text text-anchor="middle" x="526.4" y="-169.7" font-family="Times,serif" font-size="14.00" style="">14.5 TB</text>
</g>
<!-- P4&#45;&gt;NUC -->
<g id="edge11" class="edge" data-name="P4-&gt;NUC">

<path fill="none" stroke="black" d="M584.93,-602.95C537.71,-544.54 442.84,-427.2 375.33,-343.71" style=""/>
<polygon fill="black" stroke="black" points="378.23,-341.73 369.23,-336.16 372.79,-346.13 378.23,-341.73" style=""/>
</g>
<!-- HP -->
<g id="node13" class="node" pointer-events="visible" data-name="HP">

<polygon fill="none" stroke="black" points="599.78,-161.5 599.78,-335.1 940.22,-335.1 940.22,-161.5 599.78,-161.5" style=""/>
<text text-anchor="middle" x="770" y="-318.5" font-family="Times,serif" font-size="14.00" style="">HP-SERVER</text>
<polyline fill="none" stroke="black" points="599.78,-310.3 940.22,-310.3" style=""/>
<text text-anchor="middle" x="676.21" y="-293.7" font-family="Times,serif" font-size="14.00" style="">CPU: i7 7700 (x8 cores)</text>
<polyline fill="none" stroke="black" points="752.65,-285.5 752.65,-310.3" style=""/>
<text text-anchor="middle" x="797.02" y="-293.7" font-family="Times,serif" font-size="14.00" style="">RAM:32 GB</text>
<polyline fill="none" stroke="black" points="841.39,-285.5 841.39,-310.3" style=""/>
<text text-anchor="middle" x="890.81" y="-293.7" font-family="Times,serif" font-size="14.00" style="">IP:192.168.0.3</text>
<polyline fill="none" stroke="black" points="599.78,-285.5 940.22,-285.5" style=""/>
<text text-anchor="middle" x="644.33" y="-219.3" font-family="Times,serif" font-size="14.00" style="">DISKs</text>
<polyline fill="none" stroke="black" points="688.89,-161.5 688.89,-285.5" style=""/>
<text text-anchor="middle" x="724.45" y="-256.5" font-family="Times,serif" font-size="14.00" style="">LVM1</text>
<polyline fill="none" stroke="black" points="760,-235.9 760,-285.5" style=""/>
<text text-anchor="middle" x="849.72" y="-268.9" font-family="Times,serif" font-size="14.00" style="">1TB SSD</text>
<polyline fill="none" stroke="black" points="760,-260.7 939.44,-260.7" style=""/>
<text text-anchor="middle" x="849.72" y="-244.1" font-family="Times,serif" font-size="14.00" style="">RHEL_DEFAULT_LVM</text>
<polyline fill="none" stroke="black" points="688.89,-235.9 939.44,-235.9" style=""/>
<text text-anchor="middle" x="737.95" y="-194.5" font-family="Times,serif" font-size="14.00" style="">LVM2</text>
<polyline fill="none" stroke="black" points="787,-161.5 787,-235.9" style=""/>
<text text-anchor="middle" x="862.92" y="-219.3" font-family="Times,serif" font-size="14.00" style="">2TB SSD</text>
<polyline fill="none" stroke="black" points="787,-211.1 938.84,-211.1" style=""/>
<text text-anchor="middle" x="826.23" y="-194.5" font-family="Times,serif" font-size="14.00" style="">VMs</text>
<polyline fill="none" stroke="black" points="787,-186.3 865.45,-186.3" style=""/>
<text text-anchor="middle" x="826.23" y="-169.7" font-family="Times,serif" font-size="14.00" style="">500GB</text>
<polyline fill="none" stroke="black" points="865.45,-161.5 865.45,-211.1" style=""/>
<text text-anchor="middle" x="902.15" y="-194.5" font-family="Times,serif" font-size="14.00" style="">Share</text>
<polyline fill="none" stroke="black" points="865.45,-186.3 938.84,-186.3" style=""/>
<text text-anchor="middle" x="902.15" y="-169.7" font-family="Times,serif" font-size="14.00" style="">1.5TB</text>
</g>
<!-- P5&#45;&gt;HP -->
<g id="edge10" class="edge" data-name="P5-&gt;HP">

<path fill="none" stroke="black" d="M770,-602.95C770,-545.13 770,-429.57 770,-346.26" style=""/>
<polygon fill="black" stroke="black" points="773.5,-346.49 770,-336.49 766.5,-346.49 773.5,-346.49" style=""/>
</g>
<!-- SP2 -->
<g id="node11" class="node" pointer-events="visible" data-name="SP2">

<polygon fill="none" stroke="black" points="1168.86,-444.1 1168.86,-493.7 1231.14,-493.7 1231.14,-444.1 1168.86,-444.1" style=""/>
<text text-anchor="middle" x="1200" y="-477.1" font-family="Times,serif" font-size="14.00" style="">PORT 2</text>
<polyline fill="none" stroke="black" points="1168.86,-468.9 1231.14,-468.9" style=""/>
<text text-anchor="middle" x="1200" y="-452.3" font-family="Times,serif" font-size="14.00" style="">DHCP</text>
</g>
<!-- P2&#45;&gt;SP2 -->
<g id="edge13" class="edge" data-name="P2-&gt;SP2">

<path fill="none" stroke="black" d="M939.36,-615.76C997.27,-583.35 1101.86,-524.82 1159.37,-492.64" style=""/>
<polygon fill="black" stroke="black" points="1160.86,-495.81 1167.88,-487.87 1157.44,-489.7 1160.86,-495.81" style=""/>
</g>
<!-- Switch -->
<g id="node7" class="node" pointer-events="visible" data-name="Switch">

<polygon fill="none" stroke="black" points="1312.92,-602.7 1312.92,-677.1 1477.08,-677.1 1477.08,-602.7 1312.92,-602.7" style=""/>
<text text-anchor="middle" x="1395" y="-660.5" font-family="Times,serif" font-size="14.00" style="">NETGEAR GS305E</text>
<polyline fill="none" stroke="black" points="1312.92,-652.3 1477.08,-652.3" style=""/>
<text text-anchor="middle" x="1395" y="-635.7" font-family="Times,serif" font-size="14.00" style="">IP: 192.168.0.239</text>
<polyline fill="none" stroke="black" points="1312.92,-627.5 1477.08,-627.5" style=""/>
<text text-anchor="middle" x="1395" y="-610.9" font-family="Times,serif" font-size="14.00" style="">DHCP Client of TP-LINK</text>
</g>
<!-- SP1 -->
<g id="node8" class="node" pointer-events="visible" data-name="SP1">

<polygon fill="none" stroke="black" points="1557.14,-444.1 1557.14,-493.7 1694.86,-493.7 1694.86,-444.1 1557.14,-444.1" style=""/>
<text text-anchor="middle" x="1626" y="-477.1" font-family="Times,serif" font-size="14.00" style="">PORT 1</text>
<polyline fill="none" stroke="black" points="1557.14,-468.9 1694.86,-468.9" style=""/>
<text text-anchor="middle" x="1626" y="-452.3" font-family="Times,serif" font-size="14.00" style="">Static IP: 192.168.0.7</text>
</g>
<!-- Switch&#45;&gt;SP1 -->
<g id="edge6" class="edge" data-name="Switch-&gt;SP1">

<path fill="none" stroke="black" d="M1444.27,-602.85C1485.98,-572.34 1545.09,-529.09 1584.44,-500.3" style=""/>
<polygon fill="black" stroke="black" points="1586.28,-503.3 1592.28,-494.57 1582.15,-497.65 1586.28,-503.3" style=""/>
</g>
<!-- SP4 -->
<g id="node9" class="node" pointer-events="visible" data-name="SP4">

<polygon fill="none" stroke="black" points="1249.14,-444.1 1249.14,-493.7 1386.86,-493.7 1386.86,-444.1 1249.14,-444.1" style=""/>
<text text-anchor="middle" x="1318" y="-477.1" font-family="Times,serif" font-size="14.00" style="">PORT 4</text>
<polyline fill="none" stroke="black" points="1249.14,-468.9 1386.86,-468.9" style=""/>
<text text-anchor="middle" x="1318" y="-452.3" font-family="Times,serif" font-size="14.00" style="">Static IP: 192.168.0.5</text>
</g>
<!-- Switch&#45;&gt;SP4 -->
<g id="edge9" class="edge" data-name="Switch-&gt;SP4">

<path fill="none" stroke="black" d="M1378.67,-603.06C1365.32,-573.76 1346.58,-532.63 1333.47,-503.85" style=""/>
<polygon fill="black" stroke="black" points="1336.7,-502.51 1329.37,-494.86 1330.33,-505.41 1336.7,-502.51" style=""/>
</g>
<!-- SP3 -->
<g id="node10" class="node" pointer-events="visible" data-name="SP3">

<polygon fill="none" stroke="black" points="1404.89,-444.1 1404.89,-493.7 1539.11,-493.7 1539.11,-444.1 1404.89,-444.1" style=""/>
<text text-anchor="middle" x="1472" y="-477.1" font-family="Times,serif" font-size="14.00" style="">PORT 3</text>
<polyline fill="none" stroke="black" points="1404.89,-468.9 1539.11,-468.9" style=""/>
<text text-anchor="middle" x="1472" y="-452.3" font-family="Times,serif" font-size="14.00" style="">Static IP:192.168.0.6</text>
</g>
<!-- Switch&#45;&gt;SP3 -->
<g id="edge8" class="edge" data-name="Switch-&gt;SP3">

<path fill="none" stroke="black" d="M1411.33,-603.06C1424.68,-573.76 1443.42,-532.63 1456.53,-503.85" style=""/>
<polygon fill="black" stroke="black" points="1459.67,-505.41 1460.63,-494.86 1453.3,-502.51 1459.67,-505.41" style=""/>
</g>
<!-- Switch&#45;&gt;SP2 -->
<g id="edge7" class="edge" data-name="Switch-&gt;SP2">

<path fill="none" stroke="black" d="M1353.65,-603.06C1318.65,-572.73 1269.01,-529.71 1235.72,-500.86" style=""/>
<polygon fill="black" stroke="black" points="1238.2,-498.38 1228.35,-494.47 1233.62,-503.67 1238.2,-498.38" style=""/>
</g>
<!-- J2 -->
<g id="node15" class="node" pointer-events="visible" data-name="J2">

<polygon fill="none" stroke="black" points="2032.31,-198.7 2032.31,-297.9 2621.69,-297.9 2621.69,-198.7 2032.31,-198.7" style=""/>
<text text-anchor="middle" x="2327" y="-281.3" font-family="Times,serif" font-size="14.00" style="">Jetson-Nano-B01-2</text>
<polyline fill="none" stroke="black" points="2032.31,-273.1 2621.69,-273.1" style=""/>
<text text-anchor="middle" x="2138.69" y="-256.5" font-family="Times,serif" font-size="14.00" style="">CPU: ARM Cortex-A57 (x4 cores)</text>
<polyline fill="none" stroke="black" points="2245.07,-248.3 2245.07,-273.1" style=""/>
<text text-anchor="middle" x="2287.69" y="-256.5" font-family="Times,serif" font-size="14.00" style="">RAM: 4 GB</text>
<polyline fill="none" stroke="black" points="2330.31,-248.3 2330.31,-273.1" style=""/>
<text text-anchor="middle" x="2381.47" y="-256.5" font-family="Times,serif" font-size="14.00" style="">IP: 192.168.0.7</text>
<polyline fill="none" stroke="black" points="2432.64,-248.3 2432.64,-273.1" style=""/>
<text text-anchor="middle" x="2527.17" y="-256.5" font-family="Times,serif" font-size="14.00" style="">GPU: Maxwell GPU 128-Core</text>
<polyline fill="none" stroke="black" points="2032.31,-248.3 2621.69,-248.3" style=""/>
<text text-anchor="middle" x="2327" y="-231.7" font-family="Times,serif" font-size="14.00" style="">Disk: 256GB</text>
<polyline fill="none" stroke="black" points="2032.31,-223.5 2621.69,-223.5" style=""/>
<text text-anchor="middle" x="2327" y="-206.9" font-family="Times,serif" font-size="14.00" style="">System: Ubuntu</text>
</g>
<!-- SP1&#45;&gt;J2 -->
<g id="edge15" class="edge" data-name="SP1-&gt;J2">

<path fill="none" stroke="black" d="M1694.53,-453.52C1774.26,-436.15 1909.47,-404.7 2023,-368.4 2083.11,-349.18 2148.42,-324.15 2203.05,-302.01" style=""/>
<polygon fill="black" stroke="black" points="2204.14,-305.34 2212.08,-298.33 2201.5,-298.86 2204.14,-305.34" style=""/>
</g>
<!-- SD -->
<g id="node12" class="node" pointer-events="visible" data-name="SD">

<polygon fill="none" stroke="black" points="958.39,-161.5 958.39,-335.1 1327.61,-335.1 1327.61,-161.5 958.39,-161.5" style=""/>
<text text-anchor="middle" x="1143" y="-318.5" font-family="Times,serif" font-size="14.00" style="">STEAM-DECK</text>
<polyline fill="none" stroke="black" points="958.39,-310.3 1327.61,-310.3" style=""/>
<text text-anchor="middle" x="1045.71" y="-293.7" font-family="Times,serif" font-size="14.00" style="">CPU: AMD 0405 (x8 cores)</text>
<polyline fill="none" stroke="black" points="1133.04,-285.5 1133.04,-310.3" style=""/>
<text text-anchor="middle" x="1179.16" y="-293.7" font-family="Times,serif" font-size="14.00" style="">RAM: 14 GB</text>
<polyline fill="none" stroke="black" points="1225.28,-285.5 1225.28,-310.3" style=""/>
<text text-anchor="middle" x="1276.44" y="-293.7" font-family="Times,serif" font-size="14.00" style="">IP: 192.168.0.5</text>
<polyline fill="none" stroke="black" points="958.39,-285.5 1327.61,-285.5" style=""/>
<text text-anchor="middle" x="1009.94" y="-219.3" font-family="Times,serif" font-size="14.00" style="">DISKs</text>
<polyline fill="none" stroke="black" points="1061.5,-161.5 1061.5,-285.5" style=""/>
<text text-anchor="middle" x="1101.06" y="-256.5" font-family="Times,serif" font-size="14.00" style="">LVM1</text>
<polyline fill="none" stroke="black" points="1140.61,-235.9 1140.61,-285.5" style=""/>
<text text-anchor="middle" x="1233.83" y="-268.9" font-family="Times,serif" font-size="14.00" style="">256 GB SSD</text>
<polyline fill="none" stroke="black" points="1140.61,-260.7 1327.05,-260.7" style=""/>
<text text-anchor="middle" x="1233.83" y="-244.1" font-family="Times,serif" font-size="14.00" style="">RHEL_DEFAULT_LVM</text>
<polyline fill="none" stroke="black" points="1061.5,-235.9 1327.05,-235.9" style=""/>
<text text-anchor="middle" x="1114.06" y="-194.5" font-family="Times,serif" font-size="14.00" style="">LVM2</text>
<polyline fill="none" stroke="black" points="1166.61,-161.5 1166.61,-235.9" style=""/>
<text text-anchor="middle" x="1246.53" y="-219.3" font-family="Times,serif" font-size="14.00" style="">1TB TF</text>
<polyline fill="none" stroke="black" points="1166.61,-211.1 1326.45,-211.1" style=""/>
<text text-anchor="middle" x="1207.84" y="-194.5" font-family="Times,serif" font-size="14.00" style="">VMs</text>
<polyline fill="none" stroke="black" points="1166.61,-186.3 1249.06,-186.3" style=""/>
<text text-anchor="middle" x="1207.84" y="-169.7" font-family="Times,serif" font-size="14.00" style="">500GB</text>
<polyline fill="none" stroke="black" points="1249.06,-161.5 1249.06,-211.1" style=""/>
<text text-anchor="middle" x="1287.76" y="-194.5" font-family="Times,serif" font-size="14.00" style="">Share</text>
<polyline fill="none" stroke="black" points="1249.06,-186.3 1326.45,-186.3" style=""/>
<text text-anchor="middle" x="1287.76" y="-169.7" font-family="Times,serif" font-size="14.00" style="">1.5TB</text>
</g>
<!-- SP4&#45;&gt;SD -->
<g id="edge12" class="edge" data-name="SP4-&gt;SD">

<path fill="none" stroke="black" d="M1299.27,-444.51C1279.84,-420.24 1248.2,-380.71 1218.44,-343.54" style=""/>
<polygon fill="black" stroke="black" points="1221.26,-341.46 1212.28,-335.84 1215.8,-345.83 1221.26,-341.46" style=""/>
</g>
<!-- J1 -->
<g id="node17" class="node" pointer-events="visible" data-name="J1">

<polygon fill="none" stroke="black" points="1352.31,-198.7 1352.31,-297.9 1941.69,-297.9 1941.69,-198.7 1352.31,-198.7" style=""/>
<text text-anchor="middle" x="1647" y="-281.3" font-family="Times,serif" font-size="14.00" style="">Jetson-Nano-B01-1</text>
<polyline fill="none" stroke="black" points="1352.31,-273.1 1941.69,-273.1" style=""/>
<text text-anchor="middle" x="1458.69" y="-256.5" font-family="Times,serif" font-size="14.00" style="">CPU: ARM Cortex-A57 (x4 cores)</text>
<polyline fill="none" stroke="black" points="1565.07,-248.3 1565.07,-273.1" style=""/>
<text text-anchor="middle" x="1607.69" y="-256.5" font-family="Times,serif" font-size="14.00" style="">RAM: 4 GB</text>
<polyline fill="none" stroke="black" points="1650.31,-248.3 1650.31,-273.1" style=""/>
<text text-anchor="middle" x="1701.47" y="-256.5" font-family="Times,serif" font-size="14.00" style="">IP: 192.168.0.6</text>
<polyline fill="none" stroke="black" points="1752.64,-248.3 1752.64,-273.1" style=""/>
<text text-anchor="middle" x="1847.17" y="-256.5" font-family="Times,serif" font-size="14.00" style="">GPU: Maxwell GPU 128-Core</text>
<polyline fill="none" stroke="black" points="1352.31,-248.3 1941.69,-248.3" style=""/>
<text text-anchor="middle" x="1647" y="-231.7" font-family="Times,serif" font-size="14.00" style="">Disk: 512 GB</text>
<polyline fill="none" stroke="black" points="1352.31,-223.5 1941.69,-223.5" style=""/>
<text text-anchor="middle" x="1647" y="-206.9" font-family="Times,serif" font-size="14.00" style="">System: Ubuntu</text>
</g>
<!-- SP3&#45;&gt;J1 -->
<g id="edge14" class="edge" data-name="SP3-&gt;J1">

<path fill="none" stroke="black" d="M1490.73,-444.51C1516.93,-411.77 1565.37,-351.27 1601.4,-306.27" style=""/>
<polygon fill="black" stroke="black" points="1603.96,-308.66 1607.48,-298.67 1598.5,-304.28 1603.96,-308.66" style=""/>
</g>
<!-- k8s -->
<g id="node18" class="node" pointer-events="visible" data-name="k8s">

<polygon fill="none" stroke="black" points="1351,-16.5 1351,-52.5 1405,-52.5 1405,-16.5 1351,-16.5" style=""/>
<text text-anchor="middle" x="1377.72" y="-30.3" font-family="Times,serif" font-size="14.00" style="">k8s</text>
</g>
<!-- HP&#45;&gt;k8s -->
<g id="edge16" class="edge" data-name="HP-&gt;k8s">

<path fill="none" stroke="black" d="M949,-153C1082.54,-100.27 1248.39,-62.15 1329.18,-45.24" style=""/>
<polygon fill="black" stroke="black" points="1329.44,-48.76 1338.52,-43.3 1328.02,-41.91 1329.44,-48.76" style=""/>
</g>
<!-- J -->
<g id="node16" class="node" pointer-events="visible" data-name="J">

</g>
<!-- J&#45;&gt;k8s -->
<g id="edge17" class="edge" data-name="J-&gt;k8s">

<path fill="none" stroke="black" d="M1975.47,-190.2C1970.14,-176.29 1962.36,-162.65 1951,-153 1869.06,-83.39 1530.62,-48.54 1416.09,-38.58" style=""/>
<polygon fill="black" stroke="black" points="1420.52,-48.77 1416.14,-39.12 1413.55,-49.39 1420.52,-48.77" style=""/>
</g>
</g>
</svg>