<?xml version="1.0" encoding="UTF-8" standalone="no"?>
<!DOCTYPE svg PUBLIC "-//W3C//DTD SVG 1.1//EN"
 "http://www.w3.org/Graphics/SVG/1.1/DTD/svg11.dtd">
<!-- Generated by graphviz version 8.0.1 (20230327.1645)
 -->
<!-- Pages: 1 -->
<svg width="2606pt" height="2054pt"
 viewBox="0.00 0.00 2606.00 2054.00" xmlns="http://www.w3.org/2000/svg" xmlns:xlink="http://www.w3.org/1999/xlink">
<g id="graph0" class="graph" transform="scale(1 1) rotate(0) translate(4 2050)">
<polygon fill="white" stroke="none" points="-4,4 -4,-2050 2602,-2050 2602,4 -4,4"/>
<text text-anchor="middle" x="84.5" y="-2030.8" font-family="Times,serif" font-size="14.00">The Structure of the Cluster</text>
<g id="clust1" class="cluster">
<title>cluster_router</title>
<polygon fill="none" stroke="black" points="270,-1728 270,-2015 936,-2015 936,-1728 270,-1728"/>
<text text-anchor="middle" x="296.5" y="-1999.8" font-family="Times,serif" font-size="14.00">Router</text>
</g>
<g id="clust2" class="cluster">
<title>cluster_switch</title>
<polygon fill="none" stroke="black" points="1142,-1573 1142,-1837 1678,-1837 1678,-1573 1142,-1573"/>
<text text-anchor="middle" x="1169" y="-1821.8" font-family="Times,serif" font-size="14.00">Switch</text>
</g>
<g id="clust3" class="cluster">
<title>cluster_vm</title>
<polygon fill="none" stroke="black" points="8,-1303 8,-1504 1316,-1504 1316,-1303 8,-1303"/>
<text text-anchor="middle" x="50" y="-1488.8" font-family="Times,serif" font-size="14.00">VMs cluster</text>
</g>
<g id="clust4" class="cluster">
<title>cluster_jetson</title>
<polygon fill="none" stroke="black" points="1324,-1337.5 1324,-1469.5 2590,-1469.5 2590,-1337.5 1324,-1337.5"/>
<text text-anchor="middle" x="1365.5" y="-1454.3" font-family="Times,serif" font-size="14.00">Jetson Nano</text>
</g>
<g id="clust5" class="cluster">
<title>cluster_k8s</title>
<polygon fill="none" stroke="black" points="816,-8 816,-1234 1676,-1234 1676,-8 816,-8"/>
<text text-anchor="middle" x="853.5" y="-1218.8" font-family="Times,serif" font-size="14.00">k8s cluster</text>
</g>
<!-- TPlink -->
<g id="node1" class="node">
<title>TPlink</title>
<polygon fill="none" stroke="black" points="535.5,-1914.5 535.5,-1983.5 672.5,-1983.5 672.5,-1914.5 535.5,-1914.5"/>
<text text-anchor="middle" x="604" y="-1968.3" font-family="Times,serif" font-size="14.00">TP&#45;LINK ER7206</text>
<polyline fill="none" stroke="black" points="535.5,-1960.5 672.5,-1960.5"/>
<text text-anchor="middle" x="604" y="-1945.3" font-family="Times,serif" font-size="14.00">Gateway: 192.168.0.1</text>
<polyline fill="none" stroke="black" points="535.5,-1937.5 672.5,-1937.5"/>
<text text-anchor="middle" x="604" y="-1922.3" font-family="Times,serif" font-size="14.00">DHCP: on</text>
</g>
<!-- P1 -->
<g id="node2" class="node">
<title>P1</title>
<polygon fill="none" stroke="black" points="278,-1748 278,-1794 364,-1794 364,-1748 278,-1748"/>
<text text-anchor="middle" x="321" y="-1778.8" font-family="Times,serif" font-size="14.00">PORT_1</text>
<polyline fill="none" stroke="black" points="278,-1771 364,-1771"/>
<text text-anchor="middle" x="321" y="-1755.8" font-family="Times,serif" font-size="14.00">mode: WAN</text>
</g>
<!-- TPlink&#45;&gt;P1 -->
<g id="edge1" class="edge">
<title>TPlink&#45;&gt;P1</title>
<path fill="none" stroke="black" d="M535.76,-1924.57C487.19,-1905.76 422.1,-1876.06 373,-1837 360.83,-1827.32 349.71,-1814.3 340.9,-1802.45"/>
<polygon fill="black" stroke="black" points="343.3,-1800.79 334.64,-1794.7 337.61,-1804.87 343.3,-1800.79"/>
</g>
<!-- P3 -->
<g id="node3" class="node">
<title>P3</title>
<polygon fill="none" stroke="black" points="382,-1736.5 382,-1805.5 518,-1805.5 518,-1736.5 382,-1736.5"/>
<text text-anchor="middle" x="450" y="-1790.3" font-family="Times,serif" font-size="14.00">PORT_3</text>
<polyline fill="none" stroke="black" points="382,-1782.5 518,-1782.5"/>
<text text-anchor="middle" x="450" y="-1767.3" font-family="Times,serif" font-size="14.00">mode: LAN</text>
<polyline fill="none" stroke="black" points="382,-1759.5 518,-1759.5"/>
<text text-anchor="middle" x="450" y="-1744.3" font-family="Times,serif" font-size="14.00">Static IP: 192.168.0.2</text>
</g>
<!-- TPlink&#45;&gt;P3 -->
<g id="edge3" class="edge">
<title>TPlink&#45;&gt;P3</title>
<path fill="none" stroke="black" d="M575.03,-1914.9C549.84,-1886.1 513.22,-1844.25 486.12,-1813.28"/>
<polygon fill="black" stroke="black" points="488.32,-1811.48 479.1,-1806.25 483.05,-1816.09 488.32,-1811.48"/>
</g>
<!-- P4 -->
<g id="node4" class="node">
<title>P4</title>
<polygon fill="none" stroke="black" points="536,-1736.5 536,-1805.5 672,-1805.5 672,-1736.5 536,-1736.5"/>
<text text-anchor="middle" x="604" y="-1790.3" font-family="Times,serif" font-size="14.00">PORT_4</text>
<polyline fill="none" stroke="black" points="536,-1782.5 672,-1782.5"/>
<text text-anchor="middle" x="604" y="-1767.3" font-family="Times,serif" font-size="14.00">mode: LAN</text>
<polyline fill="none" stroke="black" points="536,-1759.5 672,-1759.5"/>
<text text-anchor="middle" x="604" y="-1744.3" font-family="Times,serif" font-size="14.00">Static IP: 192.168.0.4</text>
</g>
<!-- TPlink&#45;&gt;P4 -->
<g id="edge4" class="edge">
<title>TPlink&#45;&gt;P4</title>
<path fill="none" stroke="black" d="M604,-1914.9C604,-1886.96 604,-1846.74 604,-1816.08"/>
<polygon fill="black" stroke="black" points="607.5,-1816.25 604,-1806.25 600.5,-1816.25 607.5,-1816.25"/>
</g>
<!-- P5 -->
<g id="node5" class="node">
<title>P5</title>
<polygon fill="none" stroke="black" points="690,-1736.5 690,-1805.5 826,-1805.5 826,-1736.5 690,-1736.5"/>
<text text-anchor="middle" x="758" y="-1790.3" font-family="Times,serif" font-size="14.00">PORT_5</text>
<polyline fill="none" stroke="black" points="690,-1782.5 826,-1782.5"/>
<text text-anchor="middle" x="758" y="-1767.3" font-family="Times,serif" font-size="14.00">mode: LAN</text>
<polyline fill="none" stroke="black" points="690,-1759.5 826,-1759.5"/>
<text text-anchor="middle" x="758" y="-1744.3" font-family="Times,serif" font-size="14.00">Static IP: 192.168.0.3</text>
</g>
<!-- TPlink&#45;&gt;P5 -->
<g id="edge5" class="edge">
<title>TPlink&#45;&gt;P5</title>
<path fill="none" stroke="black" d="M632.97,-1914.9C658.16,-1886.1 694.78,-1844.25 721.88,-1813.28"/>
<polygon fill="black" stroke="black" points="724.95,-1816.09 728.9,-1806.25 719.68,-1811.48 724.95,-1816.09"/>
</g>
<!-- P2 -->
<g id="node6" class="node">
<title>P2</title>
<polygon fill="none" stroke="black" points="844.5,-1736.5 844.5,-1805.5 927.5,-1805.5 927.5,-1736.5 844.5,-1736.5"/>
<text text-anchor="middle" x="886" y="-1790.3" font-family="Times,serif" font-size="14.00">PORT_2</text>
<polyline fill="none" stroke="black" points="844.5,-1782.5 927.5,-1782.5"/>
<text text-anchor="middle" x="886" y="-1767.3" font-family="Times,serif" font-size="14.00">mode: LAN</text>
<polyline fill="none" stroke="black" points="844.5,-1759.5 927.5,-1759.5"/>
<text text-anchor="middle" x="886" y="-1744.3" font-family="Times,serif" font-size="14.00">DHCP</text>
</g>
<!-- TPlink&#45;&gt;P2 -->
<g id="edge2" class="edge">
<title>TPlink&#45;&gt;P2</title>
<path fill="none" stroke="black" d="M672.35,-1924.71C720.98,-1905.97 786.09,-1876.29 835,-1837 843.22,-1830.4 850.92,-1822.23 857.72,-1813.94"/>
<polygon fill="black" stroke="black" points="861.07,-1816.35 864.47,-1806.32 855.55,-1812.04 861.07,-1816.35"/>
</g>
<!-- NUC -->
<g id="node14" class="node">
<title>NUC</title>
<polygon fill="none" stroke="black" points="16,-1311.5 16,-1472.5 572,-1472.5 572,-1311.5 16,-1311.5"/>
<text text-anchor="middle" x="294" y="-1457.3" font-family="Times,serif" font-size="14.00">NUC11&#45;SERVER</text>
<polyline fill="none" stroke="black" points="16,-1449.5 572,-1449.5"/>
<text text-anchor="middle" x="102" y="-1434.3" font-family="Times,serif" font-size="14.00">CPU: i9 11900kb (x16 core)</text>
<polyline fill="none" stroke="black" points="188,-1426.5 188,-1449.5"/>
<text text-anchor="middle" x="234" y="-1434.3" font-family="Times,serif" font-size="14.00">RAM: 64 GB</text>
<polyline fill="none" stroke="black" points="280,-1426.5 280,-1449.5"/>
<text text-anchor="middle" x="330.5" y="-1434.3" font-family="Times,serif" font-size="14.00">IP: 192.168.0.4</text>
<polyline fill="none" stroke="black" points="381,-1426.5 381,-1449.5"/>
<text text-anchor="middle" x="476.5" y="-1434.3" font-family="Times,serif" font-size="14.00">GPU: NVIDA RTX 3060 12GB</text>
<polyline fill="none" stroke="black" points="16,-1426.5 572,-1426.5"/>
<text text-anchor="middle" x="116" y="-1365.3" font-family="Times,serif" font-size="14.00">DISKs</text>
<polyline fill="none" stroke="black" points="216,-1311.5 216,-1426.5"/>
<text text-anchor="middle" x="279.5" y="-1399.8" font-family="Times,serif" font-size="14.00">LVM1</text>
<polyline fill="none" stroke="black" points="343,-1380.5 343,-1426.5"/>
<text text-anchor="middle" x="457.5" y="-1411.3" font-family="Times,serif" font-size="14.00">1TB SSD</text>
<polyline fill="none" stroke="black" points="343,-1403.5 572,-1403.5"/>
<text text-anchor="middle" x="457.5" y="-1388.3" font-family="Times,serif" font-size="14.00">RHEL_DEFAULT_LVM</text>
<polyline fill="none" stroke="black" points="216,-1380.5 572,-1380.5"/>
<text text-anchor="middle" x="289" y="-1342.3" font-family="Times,serif" font-size="14.00">LVM2</text>
<polyline fill="none" stroke="black" points="362,-1311.5 362,-1380.5"/>
<text text-anchor="middle" x="467" y="-1365.3" font-family="Times,serif" font-size="14.00">5TB HDD x3</text>
<polyline fill="none" stroke="black" points="362,-1357.5 572,-1357.5"/>
<text text-anchor="middle" x="413" y="-1342.3" font-family="Times,serif" font-size="14.00">Vms</text>
<polyline fill="none" stroke="black" points="362,-1334.5 464,-1334.5"/>
<text text-anchor="middle" x="413" y="-1319.3" font-family="Times,serif" font-size="14.00">500GB</text>
<polyline fill="none" stroke="black" points="464,-1311.5 464,-1357.5"/>
<text text-anchor="middle" x="518" y="-1342.3" font-family="Times,serif" font-size="14.00">Share</text>
<polyline fill="none" stroke="black" points="464,-1334.5 572,-1334.5"/>
<text text-anchor="middle" x="518" y="-1319.3" font-family="Times,serif" font-size="14.00">14.5 TB</text>
</g>
<!-- P4&#45;&gt;NUC -->
<g id="edge28" class="edge">
<title>P4&#45;&gt;NUC</title>
<path fill="none" stroke="black" d="M576.49,-1736.54C529.71,-1679.66 433.24,-1562.34 366.13,-1480.72"/>
<polygon fill="black" stroke="black" points="368.38,-1478.94 359.32,-1473.44 362.97,-1483.39 368.38,-1478.94"/>
</g>
<!-- HP -->
<g id="node13" class="node">
<title>HP</title>
<polygon fill="none" stroke="black" points="590,-1311.5 590,-1472.5 926,-1472.5 926,-1311.5 590,-1311.5"/>
<text text-anchor="middle" x="758" y="-1457.3" font-family="Times,serif" font-size="14.00">HP&#45;SERVER</text>
<polyline fill="none" stroke="black" points="590,-1449.5 926,-1449.5"/>
<text text-anchor="middle" x="665" y="-1434.3" font-family="Times,serif" font-size="14.00">CPU: i7 7700 (x8 cores)</text>
<polyline fill="none" stroke="black" points="740,-1426.5 740,-1449.5"/>
<text text-anchor="middle" x="784" y="-1434.3" font-family="Times,serif" font-size="14.00">RAM:32 GB</text>
<polyline fill="none" stroke="black" points="828,-1426.5 828,-1449.5"/>
<text text-anchor="middle" x="877" y="-1434.3" font-family="Times,serif" font-size="14.00">IP:192.168.0.3</text>
<polyline fill="none" stroke="black" points="590,-1426.5 926,-1426.5"/>
<text text-anchor="middle" x="635" y="-1365.3" font-family="Times,serif" font-size="14.00">DISKs</text>
<polyline fill="none" stroke="black" points="680,-1311.5 680,-1426.5"/>
<text text-anchor="middle" x="716" y="-1399.8" font-family="Times,serif" font-size="14.00">LVM1</text>
<polyline fill="none" stroke="black" points="752,-1380.5 752,-1426.5"/>
<text text-anchor="middle" x="839" y="-1411.3" font-family="Times,serif" font-size="14.00">1TB SSD</text>
<polyline fill="none" stroke="black" points="752,-1403.5 926,-1403.5"/>
<text text-anchor="middle" x="839" y="-1388.3" font-family="Times,serif" font-size="14.00">RHEL_DEFAULT_LVM</text>
<polyline fill="none" stroke="black" points="680,-1380.5 926,-1380.5"/>
<text text-anchor="middle" x="728" y="-1342.3" font-family="Times,serif" font-size="14.00">LVM2</text>
<polyline fill="none" stroke="black" points="776,-1311.5 776,-1380.5"/>
<text text-anchor="middle" x="851" y="-1365.3" font-family="Times,serif" font-size="14.00">2TB SSD</text>
<polyline fill="none" stroke="black" points="776,-1357.5 926,-1357.5"/>
<text text-anchor="middle" x="814.5" y="-1342.3" font-family="Times,serif" font-size="14.00">VMs</text>
<polyline fill="none" stroke="black" points="776,-1334.5 853,-1334.5"/>
<text text-anchor="middle" x="814.5" y="-1319.3" font-family="Times,serif" font-size="14.00">500GB</text>
<polyline fill="none" stroke="black" points="853,-1311.5 853,-1357.5"/>
<text text-anchor="middle" x="889.5" y="-1342.3" font-family="Times,serif" font-size="14.00">Share</text>
<polyline fill="none" stroke="black" points="853,-1334.5 926,-1334.5"/>
<text text-anchor="middle" x="889.5" y="-1319.3" font-family="Times,serif" font-size="14.00">1.5TB</text>
</g>
<!-- P5&#45;&gt;HP -->
<g id="edge27" class="edge">
<title>P5&#45;&gt;HP</title>
<path fill="none" stroke="black" d="M758,-1736.54C758,-1680.23 758,-1564.7 758,-1483.2"/>
<polygon fill="black" stroke="black" points="761.5,-1483.44 758,-1473.44 754.5,-1483.44 761.5,-1483.44"/>
</g>
<!-- SP2 -->
<g id="node11" class="node">
<title>SP2</title>
<polygon fill="none" stroke="black" points="1150.5,-1581.5 1150.5,-1627.5 1211.5,-1627.5 1211.5,-1581.5 1150.5,-1581.5"/>
<text text-anchor="middle" x="1181" y="-1612.3" font-family="Times,serif" font-size="14.00">PORT 2</text>
<polyline fill="none" stroke="black" points="1150.5,-1604.5 1211.5,-1604.5"/>
<text text-anchor="middle" x="1181" y="-1589.3" font-family="Times,serif" font-size="14.00">DHCP</text>
</g>
<!-- P2&#45;&gt;SP2 -->
<g id="edge30" class="edge">
<title>P2&#45;&gt;SP2</title>
<path fill="none" stroke="black" d="M927.33,-1746.95C984.02,-1715.34 1085.24,-1658.9 1141.15,-1627.72"/>
<polygon fill="black" stroke="black" points="1142.68,-1630.32 1149.71,-1622.39 1139.27,-1624.21 1142.68,-1630.32"/>
</g>
<!-- Switch -->
<g id="node7" class="node">
<title>Switch</title>
<polygon fill="none" stroke="black" points="1294,-1736.5 1294,-1805.5 1454,-1805.5 1454,-1736.5 1294,-1736.5"/>
<text text-anchor="middle" x="1374" y="-1790.3" font-family="Times,serif" font-size="14.00">NETGEAR GS305E</text>
<polyline fill="none" stroke="black" points="1294,-1782.5 1454,-1782.5"/>
<text text-anchor="middle" x="1374" y="-1767.3" font-family="Times,serif" font-size="14.00">IP: 192.168.0.239</text>
<polyline fill="none" stroke="black" points="1294,-1759.5 1454,-1759.5"/>
<text text-anchor="middle" x="1374" y="-1744.3" font-family="Times,serif" font-size="14.00">DHCP Client of TP&#45;LINK</text>
</g>
<!-- SP1 -->
<g id="node8" class="node">
<title>SP1</title>
<polygon fill="none" stroke="black" points="1534,-1581.5 1534,-1627.5 1670,-1627.5 1670,-1581.5 1534,-1581.5"/>
<text text-anchor="middle" x="1602" y="-1612.3" font-family="Times,serif" font-size="14.00">PORT 1</text>
<polyline fill="none" stroke="black" points="1534,-1604.5 1670,-1604.5"/>
<text text-anchor="middle" x="1602" y="-1589.3" font-family="Times,serif" font-size="14.00">Static IP: 192.168.0.7</text>
</g>
<!-- Switch&#45;&gt;SP1 -->
<g id="edge6" class="edge">
<title>Switch&#45;&gt;SP1</title>
<path fill="none" stroke="black" d="M1420.41,-1736.51C1462.42,-1706.21 1523.58,-1662.08 1563.08,-1633.58"/>
<polygon fill="black" stroke="black" points="1564.59,-1636.08 1570.66,-1627.39 1560.5,-1630.41 1564.59,-1636.08"/>
</g>
<!-- SP4 -->
<g id="node9" class="node">
<title>SP4</title>
<polygon fill="none" stroke="black" points="1230,-1581.5 1230,-1627.5 1366,-1627.5 1366,-1581.5 1230,-1581.5"/>
<text text-anchor="middle" x="1298" y="-1612.3" font-family="Times,serif" font-size="14.00">PORT 4</text>
<polyline fill="none" stroke="black" points="1230,-1604.5 1366,-1604.5"/>
<text text-anchor="middle" x="1298" y="-1589.3" font-family="Times,serif" font-size="14.00">Static IP: 192.168.0.5</text>
</g>
<!-- Switch&#45;&gt;SP4 -->
<g id="edge9" class="edge">
<title>Switch&#45;&gt;SP4</title>
<path fill="none" stroke="black" d="M1358.62,-1736.71C1345.18,-1707.61 1325.8,-1665.66 1312.59,-1637.08"/>
<polygon fill="black" stroke="black" points="1315.4,-1635.82 1308.03,-1628.21 1309.05,-1638.75 1315.4,-1635.82"/>
</g>
<!-- SP3 -->
<g id="node10" class="node">
<title>SP3</title>
<polygon fill="none" stroke="black" points="1384,-1581.5 1384,-1627.5 1516,-1627.5 1516,-1581.5 1384,-1581.5"/>
<text text-anchor="middle" x="1450" y="-1612.3" font-family="Times,serif" font-size="14.00">PORT 3</text>
<polyline fill="none" stroke="black" points="1384,-1604.5 1516,-1604.5"/>
<text text-anchor="middle" x="1450" y="-1589.3" font-family="Times,serif" font-size="14.00">Static IP:192.168.0.6</text>
</g>
<!-- Switch&#45;&gt;SP3 -->
<g id="edge8" class="edge">
<title>Switch&#45;&gt;SP3</title>
<path fill="none" stroke="black" d="M1389.38,-1736.71C1402.82,-1707.61 1422.2,-1665.66 1435.41,-1637.08"/>
<polygon fill="black" stroke="black" points="1438.95,-1638.75 1439.97,-1628.21 1432.6,-1635.82 1438.95,-1638.75"/>
</g>
<!-- Switch&#45;&gt;SP2 -->
<g id="edge7" class="edge">
<title>Switch&#45;&gt;SP2</title>
<path fill="none" stroke="black" d="M1334.94,-1736.71C1299.71,-1706.68 1248.41,-1662.95 1214.87,-1634.37"/>
<polygon fill="black" stroke="black" points="1217.63,-1631.27 1207.75,-1627.45 1213.09,-1636.6 1217.63,-1631.27"/>
</g>
<!-- J2 -->
<g id="node15" class="node">
<title>J2</title>
<polygon fill="none" stroke="black" points="2002.5,-1346 2002.5,-1438 2581.5,-1438 2581.5,-1346 2002.5,-1346"/>
<text text-anchor="middle" x="2292" y="-1422.8" font-family="Times,serif" font-size="14.00">Jetson&#45;Nano&#45;B01&#45;2</text>
<polyline fill="none" stroke="black" points="2002.5,-1415 2581.5,-1415"/>
<text text-anchor="middle" x="2106.5" y="-1399.8" font-family="Times,serif" font-size="14.00">CPU: ARM Cortex&#45;A57 (x4 cores)</text>
<polyline fill="none" stroke="black" points="2210.5,-1392 2210.5,-1415"/>
<text text-anchor="middle" x="2253" y="-1399.8" font-family="Times,serif" font-size="14.00">RAM: 4 GB</text>
<polyline fill="none" stroke="black" points="2295.5,-1392 2295.5,-1415"/>
<text text-anchor="middle" x="2346" y="-1399.8" font-family="Times,serif" font-size="14.00">IP: 192.168.0.7</text>
<polyline fill="none" stroke="black" points="2396.5,-1392 2396.5,-1415"/>
<text text-anchor="middle" x="2489" y="-1399.8" font-family="Times,serif" font-size="14.00">GPU: Maxwell GPU 128&#45;Core</text>
<polyline fill="none" stroke="black" points="2002.5,-1392 2581.5,-1392"/>
<text text-anchor="middle" x="2292" y="-1376.8" font-family="Times,serif" font-size="14.00">Disk: 256GB</text>
<polyline fill="none" stroke="black" points="2002.5,-1369 2581.5,-1369"/>
<text text-anchor="middle" x="2292" y="-1353.8" font-family="Times,serif" font-size="14.00">System: Ubuntu</text>
</g>
<!-- SP1&#45;&gt;J2 -->
<g id="edge32" class="edge">
<title>SP1&#45;&gt;J2</title>
<path fill="none" stroke="black" d="M1669.72,-1588.57C1748.17,-1570.75 1881,-1538.93 1993,-1504 2051.72,-1485.69 2115.78,-1462.36 2169.49,-1441.83"/>
<polygon fill="black" stroke="black" points="2170.66,-1444.75 2178.75,-1437.9 2168.16,-1438.21 2170.66,-1444.75"/>
</g>
<!-- SD -->
<g id="node12" class="node">
<title>SD</title>
<polygon fill="none" stroke="black" points="944,-1311.5 944,-1472.5 1308,-1472.5 1308,-1311.5 944,-1311.5"/>
<text text-anchor="middle" x="1126" y="-1457.3" font-family="Times,serif" font-size="14.00">STEAM&#45;DECK</text>
<polyline fill="none" stroke="black" points="944,-1449.5 1308,-1449.5"/>
<text text-anchor="middle" x="1029.5" y="-1434.3" font-family="Times,serif" font-size="14.00">CPU: AMD 0405 (x8 cores)</text>
<polyline fill="none" stroke="black" points="1115,-1426.5 1115,-1449.5"/>
<text text-anchor="middle" x="1161" y="-1434.3" font-family="Times,serif" font-size="14.00">RAM: 14 GB</text>
<polyline fill="none" stroke="black" points="1207,-1426.5 1207,-1449.5"/>
<text text-anchor="middle" x="1257.5" y="-1434.3" font-family="Times,serif" font-size="14.00">IP: 192.168.0.5</text>
<polyline fill="none" stroke="black" points="944,-1426.5 1308,-1426.5"/>
<text text-anchor="middle" x="996" y="-1365.3" font-family="Times,serif" font-size="14.00">DISKs</text>
<polyline fill="none" stroke="black" points="1048,-1311.5 1048,-1426.5"/>
<text text-anchor="middle" x="1087.5" y="-1399.8" font-family="Times,serif" font-size="14.00">LVM1</text>
<polyline fill="none" stroke="black" points="1127,-1380.5 1127,-1426.5"/>
<text text-anchor="middle" x="1217.5" y="-1411.3" font-family="Times,serif" font-size="14.00">256 GB SSD</text>
<polyline fill="none" stroke="black" points="1127,-1403.5 1308,-1403.5"/>
<text text-anchor="middle" x="1217.5" y="-1388.3" font-family="Times,serif" font-size="14.00">RHEL_DEFAULT_LVM</text>
<polyline fill="none" stroke="black" points="1048,-1380.5 1308,-1380.5"/>
<text text-anchor="middle" x="1099.5" y="-1342.3" font-family="Times,serif" font-size="14.00">LVM2</text>
<polyline fill="none" stroke="black" points="1151,-1311.5 1151,-1380.5"/>
<text text-anchor="middle" x="1229.5" y="-1365.3" font-family="Times,serif" font-size="14.00">1TB TF</text>
<polyline fill="none" stroke="black" points="1151,-1357.5 1308,-1357.5"/>
<text text-anchor="middle" x="1191.5" y="-1342.3" font-family="Times,serif" font-size="14.00">VMs</text>
<polyline fill="none" stroke="black" points="1151,-1334.5 1232,-1334.5"/>
<text text-anchor="middle" x="1191.5" y="-1319.3" font-family="Times,serif" font-size="14.00">500GB</text>
<polyline fill="none" stroke="black" points="1232,-1311.5 1232,-1357.5"/>
<text text-anchor="middle" x="1270" y="-1342.3" font-family="Times,serif" font-size="14.00">Share</text>
<polyline fill="none" stroke="black" points="1232,-1334.5 1308,-1334.5"/>
<text text-anchor="middle" x="1270" y="-1319.3" font-family="Times,serif" font-size="14.00">1.5TB</text>
</g>
<!-- SP4&#45;&gt;SD -->
<g id="edge29" class="edge">
<title>SP4&#45;&gt;SD</title>
<path fill="none" stroke="black" d="M1280.24,-1581.77C1260.69,-1557.84 1228.01,-1517.84 1197.75,-1480.81"/>
<polygon fill="black" stroke="black" points="1199.97,-1479 1190.93,-1473.47 1194.55,-1483.42 1199.97,-1479"/>
</g>
<!-- J1 -->
<g id="node17" class="node">
<title>J1</title>
<polygon fill="none" stroke="black" points="1332.5,-1346 1332.5,-1438 1911.5,-1438 1911.5,-1346 1332.5,-1346"/>
<text text-anchor="middle" x="1622" y="-1422.8" font-family="Times,serif" font-size="14.00">Jetson&#45;Nano&#45;B01&#45;1</text>
<polyline fill="none" stroke="black" points="1332.5,-1415 1911.5,-1415"/>
<text text-anchor="middle" x="1436.5" y="-1399.8" font-family="Times,serif" font-size="14.00">CPU: ARM Cortex&#45;A57 (x4 cores)</text>
<polyline fill="none" stroke="black" points="1540.5,-1392 1540.5,-1415"/>
<text text-anchor="middle" x="1583" y="-1399.8" font-family="Times,serif" font-size="14.00">RAM: 4 GB</text>
<polyline fill="none" stroke="black" points="1625.5,-1392 1625.5,-1415"/>
<text text-anchor="middle" x="1676" y="-1399.8" font-family="Times,serif" font-size="14.00">IP: 192.168.0.6</text>
<polyline fill="none" stroke="black" points="1726.5,-1392 1726.5,-1415"/>
<text text-anchor="middle" x="1819" y="-1399.8" font-family="Times,serif" font-size="14.00">GPU: Maxwell GPU 128&#45;Core</text>
<polyline fill="none" stroke="black" points="1332.5,-1392 1911.5,-1392"/>
<text text-anchor="middle" x="1622" y="-1376.8" font-family="Times,serif" font-size="14.00">Disk: 512 GB</text>
<polyline fill="none" stroke="black" points="1332.5,-1369 1911.5,-1369"/>
<text text-anchor="middle" x="1622" y="-1353.8" font-family="Times,serif" font-size="14.00">System: Ubuntu</text>
</g>
<!-- SP3&#45;&gt;J1 -->
<g id="edge31" class="edge">
<title>SP3&#45;&gt;J1</title>
<path fill="none" stroke="black" d="M1467.76,-1581.77C1493.72,-1549.99 1542.85,-1489.87 1578.7,-1445.99"/>
<polygon fill="black" stroke="black" points="1581.84,-1448.68 1585.46,-1438.72 1576.42,-1444.25 1581.84,-1448.68"/>
</g>
<!-- k8s -->
<g id="node18" class="node">
<title>k8s</title>
<polygon fill="none" stroke="black" points="1319,-1166.5 1319,-1202.5 1395,-1202.5 1395,-1166.5 1319,-1166.5"/>
<text text-anchor="middle" x="1357" y="-1180.8" font-family="Times,serif" font-size="14.00">k8s&#45;cluster</text>
</g>
<!-- HP&#45;&gt;k8s -->
<g id="edge33" class="edge">
<title>HP&#45;&gt;k8s</title>
<path fill="none" stroke="black" d="M935,-1303C1001.19,-1277.59 1075.14,-1255.11 1142.42,-1236.79"/>
<polygon fill="black" stroke="black" points="1142.99,-1239.99 1151.73,-1234 1141.16,-1233.23 1142.99,-1239.99"/>
</g>
<!-- J -->
<g id="node16" class="node">
<title>J</title>
</g>
<!-- J&#45;&gt;k8s -->
<g id="edge34" class="edge">
<title>J&#45;&gt;k8s</title>
<path fill="none" stroke="black" d="M1944.64,-1337.5C1939.31,-1324.58 1931.74,-1311.93 1921,-1303 1882.49,-1270.96 1787.79,-1246.01 1686.75,-1227.5"/>
<polygon fill="black" stroke="black" points="1687.46,-1223.89 1677,-1225.56 1686.22,-1230.78 1687.46,-1223.89"/>
</g>
<!-- HA1 -->
<g id="node23" class="node">
<title>HA1</title>
<polygon fill="none" stroke="black" points="1144,-896.5 1144,-1057.5 1348,-1057.5 1348,-896.5 1144,-896.5"/>
<text text-anchor="middle" x="1246" y="-1042.3" font-family="Times,serif" font-size="14.00">High_Availability_Server_1</text>
<polyline fill="none" stroke="black" points="1144,-1034.5 1348,-1034.5"/>
<text text-anchor="middle" x="1246" y="-1019.3" font-family="Times,serif" font-size="14.00">VM HOST: HP&#45;SERVER</text>
<polyline fill="none" stroke="black" points="1144,-1011.5 1348,-1011.5"/>
<text text-anchor="middle" x="1168.5" y="-950.3" font-family="Times,serif" font-size="14.00">KVM</text>
<polyline fill="none" stroke="black" points="1193,-896.5 1193,-1011.5"/>
<text text-anchor="middle" x="1270.5" y="-996.3" font-family="Times,serif" font-size="14.00">vCPU: 2</text>
<polyline fill="none" stroke="black" points="1193,-988.5 1348,-988.5"/>
<text text-anchor="middle" x="1270.5" y="-973.3" font-family="Times,serif" font-size="14.00">RAM: 4GB</text>
<polyline fill="none" stroke="black" points="1193,-965.5 1348,-965.5"/>
<text text-anchor="middle" x="1270.5" y="-950.3" font-family="Times,serif" font-size="14.00">Network: Direct via eno1</text>
<polyline fill="none" stroke="black" points="1193,-942.5 1348,-942.5"/>
<text text-anchor="middle" x="1270.5" y="-927.3" font-family="Times,serif" font-size="14.00">Disk: 50GB</text>
<polyline fill="none" stroke="black" points="1193,-919.5 1348,-919.5"/>
<text text-anchor="middle" x="1270.5" y="-904.3" font-family="Times,serif" font-size="14.00">VIP:192.168.0.50</text>
</g>
<!-- k8s&#45;&gt;HA1 -->
<g id="edge10" class="edge">
<title>k8s&#45;&gt;HA1</title>
<path fill="none" stroke="black" d="M1347.92,-1166.68C1336.03,-1144.68 1314.32,-1104.48 1293.98,-1066.82"/>
<polygon fill="black" stroke="black" points="1296.67,-1065.45 1288.84,-1058.32 1290.52,-1068.78 1296.67,-1065.45"/>
</g>
<!-- HA2 -->
<g id="node24" class="node">
<title>HA2</title>
<polygon fill="none" stroke="black" points="1366,-896.5 1366,-1057.5 1570,-1057.5 1570,-896.5 1366,-896.5"/>
<text text-anchor="middle" x="1468" y="-1042.3" font-family="Times,serif" font-size="14.00">High_Availability_Server_2</text>
<polyline fill="none" stroke="black" points="1366,-1034.5 1570,-1034.5"/>
<text text-anchor="middle" x="1468" y="-1019.3" font-family="Times,serif" font-size="14.00">VM HOST: STEAM&#45;DECK</text>
<polyline fill="none" stroke="black" points="1366,-1011.5 1570,-1011.5"/>
<text text-anchor="middle" x="1390.5" y="-950.3" font-family="Times,serif" font-size="14.00">KVM</text>
<polyline fill="none" stroke="black" points="1415,-896.5 1415,-1011.5"/>
<text text-anchor="middle" x="1492.5" y="-996.3" font-family="Times,serif" font-size="14.00">vCPU: 2</text>
<polyline fill="none" stroke="black" points="1415,-988.5 1570,-988.5"/>
<text text-anchor="middle" x="1492.5" y="-973.3" font-family="Times,serif" font-size="14.00">RAM: 3.5GB</text>
<polyline fill="none" stroke="black" points="1415,-965.5 1570,-965.5"/>
<text text-anchor="middle" x="1492.5" y="-950.3" font-family="Times,serif" font-size="14.00">Network: Direct via eno1</text>
<polyline fill="none" stroke="black" points="1415,-942.5 1570,-942.5"/>
<text text-anchor="middle" x="1492.5" y="-927.3" font-family="Times,serif" font-size="14.00">Disk: 50GB</text>
<polyline fill="none" stroke="black" points="1415,-919.5 1570,-919.5"/>
<text text-anchor="middle" x="1492.5" y="-904.3" font-family="Times,serif" font-size="14.00">VIP:192.168.0.51</text>
</g>
<!-- k8s&#45;&gt;HA2 -->
<g id="edge11" class="edge">
<title>k8s&#45;&gt;HA2</title>
<path fill="none" stroke="black" d="M1366.08,-1166.68C1377.97,-1144.68 1399.68,-1104.48 1420.02,-1066.82"/>
<polygon fill="black" stroke="black" points="1423.48,-1068.78 1425.16,-1058.32 1417.33,-1065.45 1423.48,-1068.78"/>
</g>
<!-- k8s_master -->
<g id="node19" class="node">
<title>k8s_master</title>
<polygon fill="none" stroke="black" points="1216,-741.5 1216,-787.5 1374,-787.5 1374,-741.5 1216,-741.5"/>
<text text-anchor="middle" x="1295" y="-772.3" font-family="Times,serif" font-size="14.00">k8s_master_nodes</text>
<polyline fill="none" stroke="black" points="1216,-764.5 1374,-764.5"/>
<text text-anchor="middle" x="1295" y="-749.3" font-family="Times,serif" font-size="14.00">VM HOST: HP&#45;SERVER</text>
</g>
<!-- k8s_master_node1 -->
<g id="node20" class="node">
<title>k8s_master_node1</title>
<polygon fill="none" stroke="black" points="971,-494.5 971,-632.5 1175,-632.5 1175,-494.5 971,-494.5"/>
<text text-anchor="middle" x="1073" y="-617.3" font-family="Times,serif" font-size="14.00">k8s_master_node1</text>
<polyline fill="none" stroke="black" points="971,-609.5 1175,-609.5"/>
<text text-anchor="middle" x="995.5" y="-548.3" font-family="Times,serif" font-size="14.00">KVM</text>
<polyline fill="none" stroke="black" points="1020,-494.5 1020,-609.5"/>
<text text-anchor="middle" x="1097.5" y="-594.3" font-family="Times,serif" font-size="14.00">vCPU: 2</text>
<polyline fill="none" stroke="black" points="1020,-586.5 1175,-586.5"/>
<text text-anchor="middle" x="1097.5" y="-571.3" font-family="Times,serif" font-size="14.00">RAM: 4GB</text>
<polyline fill="none" stroke="black" points="1020,-563.5 1175,-563.5"/>
<text text-anchor="middle" x="1097.5" y="-548.3" font-family="Times,serif" font-size="14.00">Network: Direct via eno1</text>
<polyline fill="none" stroke="black" points="1020,-540.5 1175,-540.5"/>
<text text-anchor="middle" x="1097.5" y="-525.3" font-family="Times,serif" font-size="14.00">Disk: 50GB</text>
<polyline fill="none" stroke="black" points="1020,-517.5 1175,-517.5"/>
<text text-anchor="middle" x="1097.5" y="-502.3" font-family="Times,serif" font-size="14.00">Network:192.168.0.20</text>
</g>
<!-- k8s_master&#45;&gt;k8s_master_node1 -->
<g id="edge14" class="edge">
<title>k8s_master&#45;&gt;k8s_master_node1</title>
<path fill="none" stroke="black" d="M1270.82,-741.82C1243.53,-717.36 1197.64,-676.22 1156.92,-639.72"/>
<polygon fill="black" stroke="black" points="1159.63,-637.56 1149.85,-633.49 1154.96,-642.77 1159.63,-637.56"/>
</g>
<!-- k8s_master_node2 -->
<g id="node21" class="node">
<title>k8s_master_node2</title>
<polygon fill="none" stroke="black" points="1193,-494.5 1193,-632.5 1397,-632.5 1397,-494.5 1193,-494.5"/>
<text text-anchor="middle" x="1295" y="-617.3" font-family="Times,serif" font-size="14.00">k8s_master_node2</text>
<polyline fill="none" stroke="black" points="1193,-609.5 1397,-609.5"/>
<text text-anchor="middle" x="1217.5" y="-548.3" font-family="Times,serif" font-size="14.00">KVM</text>
<polyline fill="none" stroke="black" points="1242,-494.5 1242,-609.5"/>
<text text-anchor="middle" x="1319.5" y="-594.3" font-family="Times,serif" font-size="14.00">vCPU: 2</text>
<polyline fill="none" stroke="black" points="1242,-586.5 1397,-586.5"/>
<text text-anchor="middle" x="1319.5" y="-571.3" font-family="Times,serif" font-size="14.00">RAM: 4GB</text>
<polyline fill="none" stroke="black" points="1242,-563.5 1397,-563.5"/>
<text text-anchor="middle" x="1319.5" y="-548.3" font-family="Times,serif" font-size="14.00">Network: Direct via eno1</text>
<polyline fill="none" stroke="black" points="1242,-540.5 1397,-540.5"/>
<text text-anchor="middle" x="1319.5" y="-525.3" font-family="Times,serif" font-size="14.00">Disk: 50GB</text>
<polyline fill="none" stroke="black" points="1242,-517.5 1397,-517.5"/>
<text text-anchor="middle" x="1319.5" y="-502.3" font-family="Times,serif" font-size="14.00">Network:192.168.0.21</text>
</g>
<!-- k8s_master&#45;&gt;k8s_master_node2 -->
<g id="edge15" class="edge">
<title>k8s_master&#45;&gt;k8s_master_node2</title>
<path fill="none" stroke="black" d="M1295,-741.82C1295,-718.18 1295,-678.95 1295,-643.39"/>
<polygon fill="black" stroke="black" points="1298.5,-643.49 1295,-633.49 1291.5,-643.49 1298.5,-643.49"/>
</g>
<!-- k8s_master_node3 -->
<g id="node22" class="node">
<title>k8s_master_node3</title>
<polygon fill="none" stroke="black" points="1415,-494.5 1415,-632.5 1619,-632.5 1619,-494.5 1415,-494.5"/>
<text text-anchor="middle" x="1517" y="-617.3" font-family="Times,serif" font-size="14.00">k8s_master_node3</text>
<polyline fill="none" stroke="black" points="1415,-609.5 1619,-609.5"/>
<text text-anchor="middle" x="1439.5" y="-548.3" font-family="Times,serif" font-size="14.00">KVM</text>
<polyline fill="none" stroke="black" points="1464,-494.5 1464,-609.5"/>
<text text-anchor="middle" x="1541.5" y="-594.3" font-family="Times,serif" font-size="14.00">vCPU: 2</text>
<polyline fill="none" stroke="black" points="1464,-586.5 1619,-586.5"/>
<text text-anchor="middle" x="1541.5" y="-571.3" font-family="Times,serif" font-size="14.00">RAM: 4GB</text>
<polyline fill="none" stroke="black" points="1464,-563.5 1619,-563.5"/>
<text text-anchor="middle" x="1541.5" y="-548.3" font-family="Times,serif" font-size="14.00">Network: Direct via eno1</text>
<polyline fill="none" stroke="black" points="1464,-540.5 1619,-540.5"/>
<text text-anchor="middle" x="1541.5" y="-525.3" font-family="Times,serif" font-size="14.00">Disk: 50GB</text>
<polyline fill="none" stroke="black" points="1464,-517.5 1619,-517.5"/>
<text text-anchor="middle" x="1541.5" y="-502.3" font-family="Times,serif" font-size="14.00">Network:192.168.0.22</text>
</g>
<!-- k8s_master&#45;&gt;k8s_master_node3 -->
<g id="edge16" class="edge">
<title>k8s_master&#45;&gt;k8s_master_node3</title>
<path fill="none" stroke="black" d="M1319.18,-741.82C1346.47,-717.36 1392.36,-676.22 1433.08,-639.72"/>
<polygon fill="black" stroke="black" points="1435.04,-642.77 1440.15,-633.49 1430.37,-637.56 1435.04,-642.77"/>
</g>
<!-- k8s_work -->
<g id="node25" class="node">
<title>k8s_work</title>
<polygon fill="none" stroke="black" points="1241,-349.5 1241,-385.5 1349,-385.5 1349,-349.5 1241,-349.5"/>
<text text-anchor="middle" x="1295" y="-363.8" font-family="Times,serif" font-size="14.00">k8s_work_nodes</text>
</g>
<!-- k8s_master_node1&#45;&gt;k8s_work -->
<g id="edge17" class="edge">
<title>k8s_master_node1&#45;&gt;k8s_work</title>
<path fill="none" stroke="black" d="M1150.64,-494.65C1191.39,-459.05 1238.74,-417.67 1267.78,-392.28"/>
<polygon fill="black" stroke="black" points="1269.6,-394.47 1274.83,-385.26 1264.99,-389.2 1269.6,-394.47"/>
</g>
<!-- k8s_master_node2&#45;&gt;k8s_work -->
<g id="edge18" class="edge">
<title>k8s_master_node2&#45;&gt;k8s_work</title>
<path fill="none" stroke="black" d="M1295,-494.65C1295,-460.73 1295,-421.56 1295,-395.98"/>
<polygon fill="black" stroke="black" points="1298.5,-396.26 1295,-386.26 1291.5,-396.26 1298.5,-396.26"/>
</g>
<!-- k8s_master_node3&#45;&gt;k8s_work -->
<g id="edge19" class="edge">
<title>k8s_master_node3&#45;&gt;k8s_work</title>
<path fill="none" stroke="black" d="M1439.36,-494.65C1398.61,-459.05 1351.26,-417.67 1322.22,-392.28"/>
<polygon fill="black" stroke="black" points="1325.01,-389.2 1315.17,-385.26 1320.4,-394.47 1325.01,-389.2"/>
</g>
<!-- HA1&#45;&gt;k8s_master -->
<g id="edge12" class="edge">
<title>HA1&#45;&gt;k8s_master</title>
<path fill="none" stroke="black" d="M1264.45,-896.72C1272.43,-862.46 1281.32,-824.27 1287.44,-797.97"/>
<polygon fill="black" stroke="black" points="1291.03,-799.01 1289.88,-788.47 1284.21,-797.42 1291.03,-799.01"/>
</g>
<!-- HA2&#45;&gt;k8s_master -->
<g id="edge13" class="edge">
<title>HA2&#45;&gt;k8s_master</title>
<path fill="none" stroke="black" d="M1402.84,-896.72C1373.93,-861.54 1341.62,-822.23 1319.97,-795.89"/>
<polygon fill="black" stroke="black" points="1322.11,-793.98 1313.06,-788.47 1316.71,-798.42 1322.11,-793.98"/>
</g>
<!-- k8s_work_host1 -->
<g id="node26" class="node">
<title>k8s_work_host1</title>
<polygon fill="none" stroke="black" points="824,-194.5 824,-240.5 994,-240.5 994,-194.5 824,-194.5"/>
<text text-anchor="middle" x="909" y="-225.3" font-family="Times,serif" font-size="14.00">k8s_work_vm_host_1</text>
<polyline fill="none" stroke="black" points="824,-217.5 994,-217.5"/>
<text text-anchor="middle" x="909" y="-202.3" font-family="Times,serif" font-size="14.00">VM HOST: STEAM&#45;DECk</text>
</g>
<!-- k8s_work&#45;&gt;k8s_work_host1 -->
<g id="edge23" class="edge">
<title>k8s_work&#45;&gt;k8s_work_host1</title>
<path fill="none" stroke="black" d="M1250.72,-349.52C1183.4,-323.71 1054.82,-274.41 976.02,-244.2"/>
<polygon fill="black" stroke="black" points="977.78,-240.74 967.19,-240.43 975.27,-247.27 977.78,-240.74"/>
</g>
<!-- k8s_work_host2 -->
<g id="node30" class="node">
<title>k8s_work_host2</title>
<polygon fill="none" stroke="black" points="1012.5,-194.5 1012.5,-240.5 1231.5,-240.5 1231.5,-194.5 1012.5,-194.5"/>
<text text-anchor="middle" x="1122" y="-225.3" font-family="Times,serif" font-size="14.00">k8s_work_nodes_2</text>
<polyline fill="none" stroke="black" points="1012.5,-217.5 1231.5,-217.5"/>
<text text-anchor="middle" x="1122" y="-202.3" font-family="Times,serif" font-size="14.00">Physical Machine: NUC11&#45;SERVER</text>
</g>
<!-- k8s_work&#45;&gt;k8s_work_host2 -->
<g id="edge24" class="edge">
<title>k8s_work&#45;&gt;k8s_work_host2</title>
<path fill="none" stroke="black" d="M1275.15,-349.52C1245.99,-324.57 1191.16,-277.66 1155.63,-247.27"/>
<polygon fill="black" stroke="black" points="1158.36,-244.14 1148.48,-240.3 1153.81,-249.46 1158.36,-244.14"/>
</g>
<!-- k8s_work_host3 -->
<g id="node31" class="node">
<title>k8s_work_host3</title>
<polygon fill="none" stroke="black" points="1250,-194.5 1250,-240.5 1450,-240.5 1450,-194.5 1250,-194.5"/>
<text text-anchor="middle" x="1350" y="-225.3" font-family="Times,serif" font-size="14.00">k8s_work_nodes_3</text>
<polyline fill="none" stroke="black" points="1250,-217.5 1450,-217.5"/>
<text text-anchor="middle" x="1350" y="-202.3" font-family="Times,serif" font-size="14.00">Physical Machine: Jetson&#45;Nano&#45;1</text>
</g>
<!-- k8s_work&#45;&gt;k8s_work_host3 -->
<g id="edge25" class="edge">
<title>k8s_work&#45;&gt;k8s_work_host3</title>
<path fill="none" stroke="black" d="M1301.31,-349.52C1310.27,-325.41 1326.85,-280.81 1338.14,-250.4"/>
<polygon fill="black" stroke="black" points="1341.7,-251.89 1341.9,-241.3 1335.13,-249.46 1341.7,-251.89"/>
</g>
<!-- k8s_work_host4 -->
<g id="node32" class="node">
<title>k8s_work_host4</title>
<polygon fill="none" stroke="black" points="1468,-194.5 1468,-240.5 1668,-240.5 1668,-194.5 1468,-194.5"/>
<text text-anchor="middle" x="1568" y="-225.3" font-family="Times,serif" font-size="14.00">k8s_work_nodes_4</text>
<polyline fill="none" stroke="black" points="1468,-217.5 1668,-217.5"/>
<text text-anchor="middle" x="1568" y="-202.3" font-family="Times,serif" font-size="14.00">Physical Machine: Jetson&#45;Nano&#45;2</text>
</g>
<!-- k8s_work&#45;&gt;k8s_work_host4 -->
<g id="edge26" class="edge">
<title>k8s_work&#45;&gt;k8s_work_host4</title>
<path fill="none" stroke="black" d="M1326.32,-349.52C1373.32,-324.04 1462.53,-275.68 1518.43,-245.37"/>
<polygon fill="black" stroke="black" points="1519.66,-248.14 1526.79,-240.3 1516.33,-241.99 1519.66,-248.14"/>
</g>
<!-- sd_vm1 -->
<g id="node27" class="node">
<title>sd_vm1</title>
<polygon fill="none" stroke="black" points="824,-16.5 824,-85.5 962,-85.5 962,-16.5 824,-16.5"/>
<text text-anchor="middle" x="893" y="-70.3" font-family="Times,serif" font-size="14.00">k8s_work_node_1</text>
<polyline fill="none" stroke="black" points="824,-62.5 962,-62.5"/>
<text text-anchor="middle" x="848.5" y="-35.8" font-family="Times,serif" font-size="14.00">KVM</text>
<polyline fill="none" stroke="black" points="873,-16.5 873,-62.5"/>
<text text-anchor="middle" x="917.5" y="-47.3" font-family="Times,serif" font-size="14.00">vCPU:2</text>
<polyline fill="none" stroke="black" points="873,-39.5 962,-39.5"/>
<text text-anchor="middle" x="917.5" y="-24.3" font-family="Times,serif" font-size="14.00">RAM:3.5 Gb</text>
</g>
<!-- k8s_work_host1&#45;&gt;sd_vm1 -->
<g id="edge20" class="edge">
<title>k8s_work_host1&#45;&gt;sd_vm1</title>
<path fill="none" stroke="black" d="M906.88,-194.66C904.44,-169.64 900.39,-128 897.29,-96.15"/>
<polygon fill="black" stroke="black" points="900.69,-95.95 896.24,-86.34 893.73,-96.63 900.69,-95.95"/>
</g>
<!-- sd_vm2 -->
<g id="node28" class="node">
<title>sd_vm2</title>
<polygon fill="none" stroke="black" points="980,-16.5 980,-85.5 1118,-85.5 1118,-16.5 980,-16.5"/>
<text text-anchor="middle" x="1049" y="-70.3" font-family="Times,serif" font-size="14.00">k8s_work_node_2</text>
<polyline fill="none" stroke="black" points="980,-62.5 1118,-62.5"/>
<text text-anchor="middle" x="1004.5" y="-35.8" font-family="Times,serif" font-size="14.00">KVM</text>
<polyline fill="none" stroke="black" points="1029,-16.5 1029,-62.5"/>
<text text-anchor="middle" x="1073.5" y="-47.3" font-family="Times,serif" font-size="14.00">vCPU:2</text>
<polyline fill="none" stroke="black" points="1029,-39.5 1118,-39.5"/>
<text text-anchor="middle" x="1073.5" y="-24.3" font-family="Times,serif" font-size="14.00">RAM:3.5 Gb</text>
</g>
<!-- k8s_work_host1&#45;&gt;sd_vm2 -->
<g id="edge21" class="edge">
<title>k8s_work_host1&#45;&gt;sd_vm2</title>
<path fill="none" stroke="black" d="M927.59,-194.66C949.44,-168.98 986.18,-125.81 1013.54,-93.67"/>
<polygon fill="black" stroke="black" points="1016.81,-96.22 1020.63,-86.34 1011.48,-91.69 1016.81,-96.22"/>
</g>
<!-- sd_vm3 -->
<g id="node29" class="node">
<title>sd_vm3</title>
<polygon fill="none" stroke="black" points="1136,-16.5 1136,-85.5 1274,-85.5 1274,-16.5 1136,-16.5"/>
<text text-anchor="middle" x="1205" y="-70.3" font-family="Times,serif" font-size="14.00">k8s_work_node_3</text>
<polyline fill="none" stroke="black" points="1136,-62.5 1274,-62.5"/>
<text text-anchor="middle" x="1160.5" y="-35.8" font-family="Times,serif" font-size="14.00">KVM</text>
<polyline fill="none" stroke="black" points="1185,-16.5 1185,-62.5"/>
<text text-anchor="middle" x="1229.5" y="-47.3" font-family="Times,serif" font-size="14.00">vCPU:2</text>
<polyline fill="none" stroke="black" points="1185,-39.5 1274,-39.5"/>
<text text-anchor="middle" x="1229.5" y="-24.3" font-family="Times,serif" font-size="14.00">RAM:3.5 Gb</text>
</g>
<!-- k8s_work_host1&#45;&gt;sd_vm3 -->
<g id="edge22" class="edge">
<title>k8s_work_host1&#45;&gt;sd_vm3</title>
<path fill="none" stroke="black" d="M948.31,-194.66C995.9,-168.2 1076.92,-123.18 1135.22,-90.78"/>
<polygon fill="black" stroke="black" points="1136.69,-93.41 1143.74,-85.49 1133.29,-87.29 1136.69,-93.41"/>
</g>
</g>
</svg>
